<svg xmlns="http://www.w3.org/2000/svg" xmlns:xlink="http://www.w3.org/1999/xlink" width="80" height="80"><defs><path id="a" d="M0 0h68v25.812H0z"/></defs><g fill="none" fill-rule="evenodd"><g transform="translate(6 21)"><mask id="b" fill="#fff"><use xlink:href="#a"/></mask><path fill="#000" d="M65.609 23.248c-.123.657-.634 1.134-1.215 1.134h-4.686c.153-.294.265-.623.324-.977.242-1.458.44-2.956.587-4.452a.715.715 0 0 0-.712-.785H8.093a.715.715 0 0 0-.712.785c.148 1.495.345 2.993.587 4.452.059.354.17.683.324.977H3.606c-.581 0-1.092-.477-1.215-1.134a56.145 56.145 0 0 1 0-20.684c.123-.657.634-1.134 1.215-1.134h60.788c.581 0 1.092.477 1.215 1.134a56.147 56.147 0 0 1 0 20.684ZM10.47 24.382c-.515 0-.974-.51-1.09-1.21a66.245 66.245 0 0 1-.493-3.574h50.226a66.235 66.235 0 0 1-.492 3.573c-.117.702-.576 1.211-1.091 1.211H10.47ZM64.394 0H3.606C2.336 0 1.234.968.986 2.301a57.568 57.568 0 0 0 0 21.21c.248 1.333 1.35 2.301 2.62 2.301h60.788c1.27 0 2.372-.968 2.62-2.301a57.57 57.57 0 0 0 0-21.21C66.767.968 65.665 0 64.395 0Z" mask="url(#b)"/></g><path fill="#000" d="M68.832 24.017h-1.437a.715.715 0 0 0 0 1.43h1.437a.715.715 0 1 0 0-1.43M64.697 24.017H63.26a.715.715 0 0 0 0 1.43h1.437a.715.715 0 1 0 0-1.43M54.345 35.158h-28.69a.715.715 0 1 0 0 1.43h28.69a.715.715 0 1 0 0-1.43M60.966 42.275H19.035a.715.715 0 0 0 0 1.43h41.93a.715.715 0 1 0 0-1.43M17.234 51.914c0-.725.257-1.082.65-1.544a.715.715 0 0 0-1.09-.926c-.5.589-.99 1.265-.99 2.47 0 1.313.592 2.006 1.069 2.563.421.492.726.848.726 1.633 0 .726-.258 1.082-.65 1.544a.715.715 0 1 0 1.088.927c.502-.59.992-1.266.992-2.471 0-1.313-.593-2.006-1.07-2.563-.42-.493-.725-.848-.725-1.633M28.526 51.914c0-.725.257-1.082.65-1.544a.715.715 0 1 0-1.09-.926c-.501.589-.99 1.265-.99 2.47 0 1.313.592 2.006 1.069 2.563.421.492.726.848.726 1.633 0 .726-.258 1.082-.65 1.544a.715.715 0 0 0 1.088.927c.502-.59.992-1.266.992-2.471 0-1.313-.593-2.006-1.07-2.563-.42-.493-.725-.848-.725-1.633M39.818 51.914c0-.725.257-1.082.65-1.544a.715.715 0 1 0-1.09-.926c-.501.589-.99 1.265-.99 2.47 0 1.313.592 2.006 1.069 2.563.421.492.725.848.725 1.633 0 .726-.257 1.082-.65 1.544a.715.715 0 0 0 1.09.927c.5-.59.99-1.266.99-2.471 0-1.313-.592-2.006-1.069-2.563-.421-.493-.725-.848-.725-1.633M51.11 51.914c0-.725.257-1.082.65-1.544a.715.715 0 1 0-1.09-.926c-.501.589-.99 1.265-.99 2.47 0 1.313.592 2.006 1.068 2.563.422.492.726.848.726 1.633 0 .726-.257 1.082-.65 1.544a.715.715 0 1 0 1.089.927c.502-.59.992-1.266.992-2.471 0-1.313-.593-2.006-1.07-2.563-.421-.493-.726-.848-.726-1.633M62.401 51.914c0-.725.258-1.082.65-1.544a.715.715 0 1 0-1.09-.926c-.5.589-.99 1.265-.99 2.47 0 1.313.593 2.006 1.07 2.563.42.492.725.848.725 1.633 0 .726-.257 1.082-.65 1.544a.715.715 0 1 0 1.089.927c.502-.59.991-1.266.991-2.471 0-1.313-.592-2.006-1.069-2.563-.421-.493-.726-.848-.726-1.633"/></g></svg>