<svg xmlns="http://www.w3.org/2000/svg" xmlns:xlink="http://www.w3.org/1999/xlink" width="80" height="80"><defs><path id="a" d="M0 0h9.802v52.518H0z"/></defs><g fill="none" fill-rule="evenodd"><g transform="translate(62.198 14)"><mask id="b" fill="#fff"><use xlink:href="#a"/></mask><path fill="#000" d="M7.522 50.21c-.556.572-1.542.57-2.098.004a1.453 1.453 0 0 1-.42-1.054l.362-20.885a2.784 2.784 0 0 0-1.311-2.407l-.868-.54a2.778 2.778 0 0 1-1.313-2.607C2.995 9.546 4.271 4.98 5.144 3.469c.471-.816 1.053-1.25 1.54-1.48l1.253 47.156c.01.4-.136.778-.415 1.065ZM8.538 1.559A1.618 1.618 0 0 0 7.86.292c-.41-.29-.92-.368-1.399-.217C5.614.35 4.416 1 3.53 2.537 2.102 5.007.953 11.557.017 22.563a4.633 4.633 0 0 0 2.186 4.348l.867.54c.272.168.437.47.431.791L3.14 49.127c-.016.9.322 1.751.954 2.393a3.305 3.305 0 0 0 2.377.998c.908 0 1.755-.358 2.388-1.008.633-.651.968-1.509.942-2.415L8.538 1.56V1.56Z" mask="url(#b)"/></g><path fill="#000" d="M40 59c-10.476 0-19-8.524-19-19s8.524-19 19-19c10.477 0 19 8.524 19 19s-8.523 19-19 19Zm0 2c11.58 0 21-9.42 21-21s-9.42-21-21-21-21 9.42-21 21 9.42 21 21 21Z"/><path fill="#000" d="M40.002 23C49.375 23 57 30.625 57 39.999 57 49.373 49.375 57 40.002 57 30.626 57 23 49.373 23 39.999 23 30.625 30.626 23 40.002 23Zm0 2C31.729 25 25 31.728 25 40c0 8.27 6.73 15 15.002 15C48.272 55 55 48.27 55 40c0-8.272-6.728-15-14.998-15Z"/><path fill="#000" d="M9.864 29.338v-1.676h6.74v1.676c0 .993-.808 1.8-1.8 1.8a.934.934 0 0 0-.933.956l.808 31.075c.012.394-.134.765-.409 1.048-.552.563-1.524.563-2.074-.002a1.43 1.43 0 0 1-.408-1.046l.808-31.075a.931.931 0 0 0-.932-.956c-.993 0-1.8-.807-1.8-1.8m3.37 37.18c.9 0 1.743-.356 2.371-1.001a3.281 3.281 0 0 0 .939-2.396l-.787-30.245a3.669 3.669 0 0 0 2.71-3.538V14.962a.932.932 0 0 0-1.864 0v10.836h-1.119V14.962a.932.932 0 0 0-1.864 0v10.836h-.802V14.962a.932.932 0 0 0-1.864 0v10.836h-1.09V14.962a.932.932 0 0 0-1.864 0V29.338c0 1.69 1.15 3.118 2.71 3.538L9.924 63.12c-.024.9.309 1.751.938 2.396a3.284 3.284 0 0 0 2.372 1Zm12.73-28.375-.137-.022a.5.5 0 0 1-.412-.57 13.443 13.443 0 0 1 1.78-4.9c.913-1.519 1.937-2.779 3.073-3.78a.5.5 0 0 1 .655-.005l.135.116a.5.5 0 0 1 .008.753c-1.038.925-1.947 2.054-2.729 3.387-.816 1.392-1.418 2.939-1.803 4.639a.5.5 0 0 1-.57.382Zm5.621-9.495-.083-.114a.5.5 0 0 1 .101-.695c.258-.195.534-.377.83-.547.322-.187.657-.363 1.004-.529a.5.5 0 0 1 .638.184l.067.107a.47.47 0 0 1-.196.677 7.101 7.101 0 0 0-.753.419c-.315.2-.621.403-.918.611a.5.5 0 0 1-.69-.113Z"/></g></svg>