<svg xmlns="http://www.w3.org/2000/svg" width="80" height="80"><g fill="none" fill-rule="evenodd"><path stroke="#000" stroke-linecap="round" stroke-linejoin="round" stroke-width="2" d="M29.355 59.318H10V21.591h60v37.727H50.645M10 21.59v-7.726A3.867 3.867 0 0 1 13.871 10h52.258A3.867 3.867 0 0 1 70 13.864v7.727"/><path stroke="#000" stroke-linecap="round" stroke-linejoin="round" stroke-width="2" d="M33.182 49.773v16.481l4.547-3.745L42.271 70l3.79-2.246-4.547-7.492 5.304-1.501zM21.591 31.193l2.898 2.898 4.829-7.727M33.182 26.477h29.091M33.182 30.341h22.273M33.182 42.841h29.091M42.045 50.568h15.91M37.045 46.705h25.228"/><path stroke="#000" stroke-linecap="round" stroke-linejoin="round" stroke-width="2" d="M24.86 26.364h-7.133v11.591h11.591v-3.864M29.318 42.955H17.727v11.59h11.591v-3.863z"/><path fill="#000" d="M17 16a1 1 0 1 1-2 0 1 1 0 0 1 2 0M21 16a1 1 0 1 1-2 0 1 1 0 0 1 2 0M25 16a1 1 0 1 1-2 0 1 1 0 0 1 2 0"/></g></svg>