<svg xmlns="http://www.w3.org/2000/svg" width="80" height="80"><g fill="none" fill-rule="evenodd" stroke="#000" stroke-linecap="round" stroke-linejoin="round" stroke-width="1.6"><path d="M21.814 31.977C25.19 20.988 35.021 13 47.116 13 61.964 13 74 25.036 74 39.884c0 14.847-12.036 26.883-26.884 26.883-2.752 0-5.407-.813-7.907-1.581"/><path d="M29.72 31.977c0-5.121 3.164-7.23 3.164-11.07v-3.163M36.047 16.163s1.882.602 3.162 3.163c1.28 2.56 3.464 3.162 4.744 3.162 1.28 0 2.184-1.581 4.745-1.581 2.56 0 3.162 3.163 3.162 3.163s2.937 1.732 1.657 3.012c-1.28 1.28-3.54-.828-4.82 1.732-1.28 2.56-1.882 7.907-3.162 7.907M58.186 47.79c2.533.376 4.377 1.101 3.163 4.745-1.28 3.84-4.684 2.399-6.326 4.744-2.729 3.898-3.097 5.947-3.163 7.907M48.698 66.767c-1.105-2.257-2.162-5.574-1.582-9.488.563-3.799-5.307-4.108-4.744-7.907.563-3.799 1.883-3.464 3.163-4.744 1.28-1.28 1.882-1.581 3.163-1.581M70.837 28.814s-5.227 1.714-3.163 7.907C68.954 40.56 74 39.884 74 39.884M58.186 16.163s-1.381 3.363 0 4.744c1.581 1.581 2.653-.542 3.163 1.581.471 1.964 1.581 3.163 3.163 3.163 1.581 0 3.162-1.581 3.162-1.581M55.05 50.953v-4.744M58.186 43.047a3.163 3.163 0 1 1-6.326 0 3.163 3.163 0 0 1 6.326 0Z"/><path d="M18.651 55.698c-.142.246 9.079-7.503 9.079-7.503l.41-.404 6.325 15.814 1.582-1.582-1.582-20.558 4.744-4.744c1.177-1.183 3.163-4.744 1.582-6.326-1.582-1.581-5.143.405-6.326 1.582l-4.744 4.744L7.58 35.14v1.58l15.814 6.327-7.907 9.488"/><path d="M15.488 52.535H6v3.163s6.57.244 7.907 1.581c1.452 1.452 1.581 7.907 1.581 7.907h3.163v-9.488"/></g></svg>