<svg xmlns="http://www.w3.org/2000/svg" xmlns:xlink="http://www.w3.org/1999/xlink" width="80" height="80"><defs><path id="a" d="M0 0h70v32.941H0z"/><path id="c" d="M0 0h42v57.649H0z"/></defs><g fill="none" fill-rule="evenodd"><g transform="rotate(-90 55.5 19.97)"><mask id="b" fill="#fff"><use xlink:href="#a"/></mask><path fill="#000" d="M67.741 22.611a.776.776 0 0 1-.774.777h-2.42a.776.776 0 0 1-.774-.777V10.33c0-.428.347-.777.774-.777h2.42c.427 0 .774.349.774.777V22.61Zm-6.227 4.206a.777.777 0 0 1-.774.777h-2.935a.777.777 0 0 1-.774-.777V6.124c0-.429.347-.777.774-.777h2.935c.427 0 .774.348.774.777v20.693Zm-6.742 3.08a.776.776 0 0 1-.775.778h-2.855a.776.776 0 0 1-.774-.777V11.62a37.092 37.092 0 0 0 2.02-1.346c.524-.384 1.318-1.029 2.384-1.933V29.897ZM21.89 17.565h26.218v-2.187H21.89v2.187Zm-2.259 12.334a.776.776 0 0 1-.774.777h-2.856a.777.777 0 0 1-.774-.777V8.583c.977.545 1.711.909 2.202 1.09.488.18 1.222.36 2.202.539v19.685ZM9.26 27.594a.777.777 0 0 1-.774-.777V6.706c.861.995 1.488 1.584 1.879 1.767.605.284 1.473 1.021 2.604 2.212v16.132a.777.777 0 0 1-.774.777H9.26Zm-6.227-4.206a.777.777 0 0 1-.774-.777V10.33c0-.428.347-.777.774-.777h2.42c.426 0 .774.349.774.777V22.61a.776.776 0 0 1-.774.777h-2.42ZM64.547 7.287a3.01 3.01 0 0 0-.774.104V6.124A3.042 3.042 0 0 0 60.74 3.08h-2.167c-1.028 2.436-2.264 4.318-3.707 5.645-.384.353-.687.749-2.37 1.96-.799.575-2.747 1.487-4.014 1.83v.33l-26.591.266v-2.426c-2.416-.237-5.078-1.214-7.987-2.932-3.37-1.991-5.873-5.263-7.51-9.816v9.35h-3.36A3.042 3.042 0 0 0 0 10.33V22.61a3.042 3.042 0 0 0 3.033 3.044h2.42c.268 0 .526-.039.774-.105v1.267a3.042 3.042 0 0 0 3.033 3.044h2.935c.268 0 .527-.039.774-.104v.14a3.042 3.042 0 0 0 3.033 3.044h2.856a3.042 3.042 0 0 0 3.033-3.043V19.83h26.218v10.068a3.042 3.042 0 0 0 3.033 3.043h2.855a3.042 3.042 0 0 0 3.034-3.043v-.141c.247.065.506.104.774.104h2.935a3.042 3.042 0 0 0 3.033-3.044V25.55c.248.066.506.105.774.105h2.42A3.042 3.042 0 0 0 70 22.61V10.33a3.042 3.042 0 0 0-3.033-3.043h-2.42Z" mask="url(#b)"/></g><g transform="translate(7 15)"><mask id="d" fill="#fff"><use xlink:href="#c"/></mask><path fill="#000" d="M21 54.864c-10.043 0-18.214-8.171-18.214-18.215 0-3.284.886-6.506 2.563-9.316.257-.43.263-.966.015-1.402a17.974 17.974 0 0 1-2.34-8.866c0-4.623 1.718-8.231 5.106-10.726C11.287 4.014 15.737 2.785 21 2.785c5.263 0 9.713 1.23 12.87 3.554 3.389 2.495 5.107 6.103 5.107 10.726 0 3.106-.81 6.172-2.341 8.866-.248.436-.242.971.015 1.402a18.184 18.184 0 0 1 2.563 9.316c0 10.044-8.17 18.215-18.214 18.215m18.44-28.262a20.774 20.774 0 0 0 2.322-9.537C41.762 6.54 33.807 0 21 0 8.194 0 .238 6.539.238 17.065c0 3.32.8 6.6 2.321 9.537A20.985 20.985 0 0 0 0 36.649c0 11.58 9.422 21 21.001 21 11.58 0 21-9.42 21-21 0-3.518-.883-6.975-2.56-10.047" mask="url(#d)"/></g><path fill="#000" d="M40.023 34.438A20.99 20.99 0 0 0 28 30.65a20.99 20.99 0 0 0-12.023 3.788c-.153-.777-.23-1.57-.23-2.373 0-5.756 4.123-8.675 12.253-8.675 8.13 0 12.253 2.919 12.253 8.675 0 .802-.077 1.595-.23 2.373M28 20.604c-9.697 0-15.038 4.07-15.038 11.461 0 1.794.314 3.551.933 5.222a1.393 1.393 0 0 0 2.216.571 18.203 18.203 0 0 1 11.89-4.423c4.361 0 8.584 1.571 11.889 4.423a1.393 1.393 0 0 0 2.216-.571c.619-1.672.933-3.43.933-5.222 0-7.39-5.341-11.46-15.039-11.46"/></g></svg>