<svg xmlns="http://www.w3.org/2000/svg" width="80" height="80"><g fill="#000" fill-rule="evenodd"><path d="M72.7 60.191H52.027V39.908h17.812a.65.65 0 0 0 0-1.3H52.027v-1.235H72.7V60.19Zm-42.711 0h20.738V37.373H29.989V60.19ZM7.3 33.147h21.323V19.3H7.3v13.847Zm0 27.044h21.323V34.447H7.3v25.744Zm22.624-24.118V18H6v43.491h68V36.073H29.924Z"/><path d="M24.138 30.06a.813.813 0 0 1-.813-.813V24.37a.813.813 0 0 1 1.625 0v4.876a.813.813 0 0 1-.812.812M24.138 43.386a.813.813 0 0 1-.813-.812v-4.746a.813.813 0 0 1 1.625 0v4.746a.813.813 0 0 1-.812.812M33.63 44.394H46.5v-3.576H33.629v3.576Zm0 4.876H46.5v-3.576H33.629v3.576Zm0 8.06H46.5v-6.76H33.629v6.76Zm-1.301 1.301H47.8V39.518H32.33v19.113ZM55.797 57.33H69.19v-8.58H55.797v8.58Zm-1.3 1.301H70.49V47.449H54.497v11.182ZM69.774 45.109H55.082a.65.65 0 0 1 0-1.3h14.692a.65.65 0 0 1 0 1.3M56.447 41.013a.781.781 0 1 0 .002 1.562.781.781 0 0 0-.002-1.562m0 2.21c-.788 0-1.43-.64-1.43-1.43 0-.788.642-1.43 1.43-1.43.789 0 1.43.642 1.43 1.43 0 .79-.641 1.43-1.43 1.43M61.713 41.013a.781.781 0 1 0 .002 1.562.781.781 0 0 0-.002-1.562m0 2.21c-.788 0-1.43-.64-1.43-1.43 0-.788.642-1.43 1.43-1.43.789 0 1.43.642 1.43 1.43 0 .79-.641 1.43-1.43 1.43M66.979 41.013a.781.781 0 1 0 .002 1.562.781.781 0 0 0-.002-1.562m0 2.21c-.789 0-1.43-.64-1.43-1.43 0-.788.641-1.43 1.43-1.43.789 0 1.43.642 1.43 1.43 0 .79-.641 1.43-1.43 1.43"/><path d="M41.885 43.224H39.09a.65.65 0 0 1 0-1.3h2.795a.65.65 0 0 1 0 1.3M42.08 48.1h-2.795a.65.65 0 1 1 0-1.3h2.795a.65.65 0 0 1 0 1.3M41.95 53.17h-2.795a.65.65 0 1 1 0-1.3h2.795a.65.65 0 0 1 0 1.3M66.329 32.396a2.185 2.185 0 0 1-2.182 2.181h-3.763a2.185 2.185 0 0 1-2.181-2.181v-4.97h8.126v4.97Zm2.6-6.335H55.732a.65.65 0 0 0 0 1.3h1.17v5.035a3.486 3.486 0 0 0 3.482 3.482h3.763a3.486 3.486 0 0 0 3.482-3.482V27.36h1.3a.65.65 0 0 0 0-1.3Z"/><path d="M64.184 31.327a.325.325 0 0 1-.325-.325v-1.82a.325.325 0 1 1 .65 0v1.82c0 .18-.146.325-.325.325M60.673 21.055c.054.058.104.114.148.178.046.064.082.133.116.206.063.146.1.305.11.469a1.535 1.535 0 0 1-.14.724l-.042.093c-.013.025-.023.052-.034.078-.087.211-.14.435-.164.677a2.699 2.699 0 0 0-.009.382l.006.103.009.111c.004.075.005.151 0 .23a1.926 1.926 0 0 1-.167-.158l-.075-.082c-.025-.029-.048-.062-.073-.093a1.37 1.37 0 0 1-.199-.439 1.55 1.55 0 0 1 .07-.977c.017-.038.033-.077.053-.114l.029-.055.022-.042c.03-.05.054-.101.08-.153.048-.105.09-.216.126-.332a2.816 2.816 0 0 0 .109-.579c.006-.071.012-.15.025-.227M62.952 19.235c.073.123.144.242.207.371.066.129.114.265.16.404a2.986 2.986 0 0 1-.018 1.758c-.047.143-.1.284-.166.42l-.087.183c-.03.056-.05.114-.075.172-.19.46-.282.96-.276 1.47.002.257.03.516.082.776l.044.197.048.204c.032.137.059.276.08.416a6.126 6.126 0 0 1-.246-.344c-.04-.058-.077-.117-.116-.175-.038-.06-.073-.124-.11-.187a2.92 2.92 0 0 1-.29-.832 3.14 3.14 0 0 1 .182-1.771c.031-.07.059-.14.095-.206l.05-.102.024-.045.021-.041c.062-.11.11-.225.16-.34.092-.233.163-.476.212-.727a4.254 4.254 0 0 0 .052-1.18c-.012-.137-.027-.28-.033-.42M43.224 23.289l-.843 6.38h-.823l.256-1.336a.325.325 0 1 0-.638-.123l-.28 1.46h-.571l.384-1.92a.325.325 0 1 0-.637-.127l-.41 2.046h-.58l.393-2.185a.325.325 0 0 0-.64-.115l-.413 2.3h-.564l.25-1.201a.326.326 0 0 0-.252-.385.326.326 0 0 0-.385.252l-.277 1.334h-.552l.427-2.38a.325.325 0 0 0-.64-.115l-.447 2.495h-.688l1.119-5.53c.14-.694-.027-1.664-.498-2.88a.804.804 0 0 1 .09-.754.813.813 0 0 1 .68-.36h5.556c.149 0 .29.08.367.206a4.502 4.502 0 0 1 .498 1.167c.155.574.197 1.176.118 1.77m3.212-2.883h-2.873a.635.635 0 0 0-.173.024 5.236 5.236 0 0 0-.227-.415 1.086 1.086 0 0 0-.922-.519h-5.555a1.474 1.474 0 0 0-1.367.92.604.604 0 0 0-.109-.01H32.46a.65.65 0 0 0 0 1.3h2.751c.06 0 .116-.007.17-.022.366.996.504 1.797.396 2.328l-1.138 5.624a.568.568 0 0 0 .56.684h7.252a.573.573 0 0 0 .566-.496l.853-6.45a5.165 5.165 0 0 0-.052-1.667h2.619a.65.65 0 0 0 0-1.3"/></g></svg>