<svg xmlns="http://www.w3.org/2000/svg" xmlns:xlink="http://www.w3.org/1999/xlink" width="80" height="80"><defs><path id="a" d="M0 0h34.167v20.2H0z"/><path id="c" d="M0 0h65.49v33.732H0z"/></defs><g fill="none" fill-rule="evenodd"><path fill="#17171A" d="M58.589 40.934a8.412 8.412 0 0 0-7.933 5.507 5.75 5.75 0 0 0-6.635 5.675 5.75 5.75 0 0 0 5.744 5.745h16.26a6.362 6.362 0 0 0 6.355-6.355c0-3.542-2.912-6.41-6.47-6.354a8.5 8.5 0 0 0-7.321-4.218m11.625 10.572c0 2.31-1.88 4.189-4.19 4.189H49.766a3.582 3.582 0 0 1-3.578-3.578 3.583 3.583 0 0 1 4.83-3.354 1.082 1.082 0 0 0 1.434-.773 6.262 6.262 0 0 1 6.138-4.89c2.44 0 4.68 1.43 5.711 3.645.202.432.662.682 1.134.615a4.194 4.194 0 0 1 4.78 4.147"/><g transform="translate(6 47.8)"><mask id="b" fill="#fff"><use xlink:href="#a"/></mask><path fill="#17171A" d="M6.778 20.2h19.865c4.149 0 7.524-3.375 7.524-7.524 0-4.148-3.375-7.523-7.524-7.523-.092 0-.184.001-.277.005A10.144 10.144 0 0 0 17.558 0c-4.36 0-8.135 2.728-9.533 6.76A6.785 6.785 0 0 0 0 13.422 6.786 6.786 0 0 0 6.778 20.2m0-11.39c.555 0 1.097.098 1.612.29a1.08 1.08 0 0 0 1.435-.773 7.89 7.89 0 0 1 7.733-6.161 7.967 7.967 0 0 1 7.196 4.591c.201.433.66.683 1.133.616a5.364 5.364 0 0 1 6.114 5.304 5.364 5.364 0 0 1-5.358 5.357H6.778a4.618 4.618 0 0 1-4.612-4.612A4.617 4.617 0 0 1 6.778 8.81" mask="url(#b)"/></g><g transform="translate(7.65 12)"><mask id="d" fill="#fff"><use xlink:href="#c"/></mask><path fill="#17171A" d="M65.471 17.833c.228-1.69-1.73-2.894-2.796-3.295-.197-.073-.382-.305-.692-.709-.756-.985-1.9-2.474-5.287-3.151-1.844-.369-8.29-.371-15.713-.268C29.891.45 29.478.274 29.206.157 28.948.047 28.63 0 28.141 0c-1.488 0-4.474.466-4.6.486a1.084 1.084 0 0 0-.681.397c-.671.847.091 1.767.764 2.578.548.66 1.306 1.495 2.108 2.378 1.232 1.356 3.283 3.615 3.542 4.27.017.136.041.305.072.508-6.662.128-13.772.256-14.698.08-.767-.255-2.775-2.44-3.98-3.748C8.85 4.97 8.185 4.28 7.485 4.14a1.084 1.084 0 0 0-.145-.019C.906 3.72.514 4.31.198 4.783c-.354.53-.207 1.15.232 2.256.92 2.319 5.668 11.924 10.413 13.019 2.923.674 13.922 1.033 18.533 1.156-.21 1.169-.343 1.978-.397 2.415-.259.655-2.31 2.913-3.542 4.27-.802.883-1.56 1.717-2.108 2.378-.673.81-1.436 1.73-.764 2.577.168.213.412.355.68.398 2.383.374 3.744.48 4.538.48.775 0 1.01-.101 1.128-.151.199-.085.787-.338 13.918-12.177h.532c4.774 0 10.938-.075 14.673-.415 4.91-.446 7.203-1.42 7.437-3.156M27.335 4.383c-.567-.625-1.25-1.378-1.78-1.993.89-.113 1.933-.224 2.586-.224.095 0 .164.002.213.005.437.336 2.22 1.822 9.44 8.289h-.037l-.697.012-.116.002a2612 2612 0 0 0-4.96.092c-.15.003-.302.005-.452.009-.066-.41-.098-.64-.113-.77-.11-.96-1.33-2.39-4.084-5.422m30.503 14.45c-2.646.24-7.153.382-12.847.403a1.079 1.079 0 0 0-1.76-1.112C37.943 22.9 29.363 30.58 28.056 31.569c-.434.035-1.57-.067-2.797-.22.53-.616 1.214-1.37 1.781-1.994 2.754-3.032 3.973-4.462 4.084-5.422.07-.6.372-2.326.852-4.858a1.083 1.083 0 1 0-2.128-.404l-.073.388c-9.345-.242-16.551-.674-18.445-1.111-1.572-.363-3.727-2.56-5.913-6.028C3.955 9.6 2.894 7.374 2.425 6.194c1.064-.058 2.92-.02 4.557.075.402.309 1.37 1.36 2.092 2.146 2.203 2.395 3.74 3.993 4.97 4.362.866.26 5.208.202 16.482-.017l1.402-.027c1.171-.022 2.385-.046 3.613-.068h.009l.985-.018c8.834-.155 17.737-.245 19.736.154 2.59.518 3.336 1.49 3.995 2.347.424.552.862 1.124 1.648 1.418.579.217 1.224.705 1.382.974-.205.204-1.2.905-5.458 1.292" mask="url(#d)"/></g></g></svg>