<svg xmlns="http://www.w3.org/2000/svg" width="80" height="80"><defs><path id="a" d="M0 0h26.134v2.505H0z"/><path id="b" d="M0 0h18.306v2.505H0z"/><path id="c" d="M0 0h36.03v31.97H0z"/><path id="d" d="M0 0h62v39.288H0z"/></defs><g fill="none" fill-rule="evenodd"><path fill="#000" d="M62.232 47.516c.692 0 1.253.529 1.253 1.181v13.638c0 .652-.561 1.181-1.253 1.181H17.768c-.692 0-1.253-.529-1.253-1.18V48.696c0-.652.561-1.181 1.253-1.181Zm-1.252 2.362H19.02v11.276h41.96V49.878ZM27.015 9c5.064 0 9.184 4.12 9.184 9.184a9.13 9.13 0 0 1-1.582 5.146c2.777 1.079 5.527 2.15 6.518 2.539 2.526.993 3.895 2.114 3.895 5.186v8.662c0 .692-.561 1.253-1.253 1.253H10.253C9.56 40.97 9 40.409 9 39.717v-8.662c0-3.072 1.369-4.193 3.895-5.186.99-.39 3.74-1.46 6.517-2.54a9.13 9.13 0 0 1-1.581-5.145c0-5.064 4.12-9.184 9.184-9.184Zm5.784 16.31a9.14 9.14 0 0 1-5.784 2.057 9.14 9.14 0 0 1-5.784-2.056c-3.062 1.19-6.323 2.458-7.42 2.89-1.961.77-2.306 1.198-2.306 2.854v7.41h5.868V34.39a1.253 1.253 0 0 1 2.505 0v4.074h14.274V34.39a1.253 1.253 0 0 1 2.505 0v4.074h5.867v-7.41c0-1.656-.345-2.083-2.306-2.855-1.096-.43-4.358-1.7-7.42-2.89Zm-5.784-13.805a6.686 6.686 0 0 0-6.679 6.679 6.686 6.686 0 0 0 6.679 6.678 6.686 6.686 0 0 0 6.679-6.678 6.686 6.686 0 0 0-6.68-6.679Z"/><path fill="#000" d="M64.737 32.711H50.04c-.691 0-1.252.543-1.252 1.212 0 .669.56 1.211 1.252 1.211h14.698c2.072 0 3.758 1.63 3.758 3.635v25.885c0 2.004-1.686 3.635-3.758 3.635H15.263c-2.072 0-3.758-1.63-3.758-3.635V46.512c0-.67-.56-1.212-1.253-1.212-.691 0-1.252.543-1.252 1.212v18.142c0 3.34 2.81 6.057 6.263 6.057h49.474c3.454 0 6.263-2.717 6.263-6.057V38.77c0-3.34-2.81-6.058-6.263-6.058"/><path fill="#000" d="M62.232 40.366a1.88 1.88 0 0 0-1.878-1.879 1.88 1.88 0 0 0-1.88 1.88 1.88 1.88 0 0 0 1.88 1.878 1.88 1.88 0 0 0 1.878-1.879M54.583 40.366a1.88 1.88 0 0 0-1.878-1.879 1.88 1.88 0 0 0-1.88 1.88 1.88 1.88 0 0 0 1.88 1.878 1.88 1.88 0 0 0 1.878-1.879M46.119 11.4h23.628c.692 0 1.253-.537 1.253-1.2 0-.663-.56-1.2-1.253-1.2H46.12c-.692 0-1.253.537-1.253 1.2 0 .663.561 1.2 1.253 1.2M69.747 15.505h-15.8c-.692 0-1.253.537-1.253 1.2 0 .663.561 1.2 1.253 1.2h15.8c.692 0 1.253-.537 1.253-1.2 0-.663-.56-1.2-1.253-1.2M69.747 22.01h-7.972c-.691 0-1.252.537-1.252 1.2 0 .663.56 1.2 1.252 1.2h7.972c.692 0 1.253-.537 1.253-1.2 0-.663-.56-1.2-1.253-1.2"/></g></svg>