<svg xmlns="http://www.w3.org/2000/svg" width="80" height="80"><g fill="none" fill-rule="evenodd" stroke="#000" stroke-linecap="round"><path stroke-width="2" d="M34.502 62H22V12h37v50H46.769"/><path stroke-linejoin="round" stroke-width="2" d="M46.58 64.209 61.01 68 72 20.804l-10.42-2.779M34.69 64.209 18.903 68 8 20.804l11.531-2.779"/><path stroke-linejoin="round" stroke-width="1.4" d="m28 18.025 24.844-.012M28 23.025l24.844-.013M28 28h14M28 35.025l24.844-.013M28 40.025l24.844-.012M28 45h12"/><path stroke-linejoin="round" d="M45.25 62.625a4.602 4.602 0 0 1-1.59 3.488 4.62 4.62 0 0 1-3.035 1.137A4.627 4.627 0 0 1 36 62.625 4.627 4.627 0 0 1 40.625 58a4.627 4.627 0 0 1 4.625 4.625Z"/><path stroke-linejoin="round" d="m37.825 62.687 1.883 1.522 3.009-3.564"/></g></svg>