<svg xmlns="http://www.w3.org/2000/svg" xmlns:xlink="http://www.w3.org/1999/xlink" width="80" height="80"><defs><path id="a" d="M0 0h62v62H0z"/><path id="c" d="M3.15.104 0 1.287l.5 1.328 3.148-1.183a.194.194 0 0 1 .167.014l3.16 1.844c.223.13.465.218.719.262l2.139.368a.46.46 0 0 1 .348.277l.729 1.751.553.91a.349.349 0 0 1-.03.404l-1.169 1.4a1.666 1.666 0 0 0-.386 1.066v5.049h1.42v-5.05c0-.056.02-.112.056-.155l1.169-1.401c.484-.581.545-1.405.152-2.051l-.497-.817-.687-1.651a1.872 1.872 0 0 0-1.418-1.13l-2.138-.369a.728.728 0 0 1-.244-.089L4.53.22A1.616 1.616 0 0 0 3.15.103Z"/><path id="e" d="M6.478 3.216a.585.585 0 0 1-.337.387c-.712.3-2.083.902-3.259 1.567-.665.376-1.194.73-1.573 1.054-.478.408-.753.8-.837 1.191-.146.242-.37.701-.446 1.347a4.253 4.253 0 0 0 .147 1.655c.191.676.542 1.367 1.042 2.054a35.229 35.229 0 0 0 1.333 1.748c.136.162.24.274.327.355.235.217.487.295.748.233.285-.068.5-.3.546-.592.013-.083.027-.161.045-.212l.352-.96a1.718 1.718 0 0 1 1.265-1.097l2.923-.618a2.82 2.82 0 0 1 1.102-.015l4.64.858c.052.01.101.037.137.076l1.21 1.302.974 1.328a3.22 3.22 0 0 0 2.015 1.266 3.22 3.22 0 0 0 2.336-.458l1.28-.82a1.27 1.27 0 0 0 .513-1.502l-.246-.69a.039.039 0 0 1 .004-.035c.008-.015.018-.017.023-.018.99-.194 2.09.702 3.095 2.524.298.54.866.867 1.468.867.09 0 .18-.007.27-.022a3.166 3.166 0 0 0 1.646-.803c.603-.56 1.014-1.366 1.222-2.397l-1.391-.28c-.25 1.234-.824 1.934-1.707 2.08a.257.257 0 0 1-.265-.13c-.743-1.347-1.563-2.292-2.438-2.81-.702-.417-1.454-.563-2.173-.421a1.46 1.46 0 0 0-1.09 1.92l.207.583-1.184.76a1.816 1.816 0 0 1-2.441-.453l-1.023-1.394-1.265-1.363a1.678 1.678 0 0 0-.919-.505l-4.64-.858a4.233 4.233 0 0 0-1.654.021l-2.923.619c-.52.11-1.008.352-1.41.7a3.155 3.155 0 0 0-.893 1.296l-.063.17c-.204-.267-.468-.62-.809-1.088-1.563-2.148-.728-3.417-.65-3.525l.153-.176v-.232c.038-.08.305-.522 1.89-1.395 1.079-.594 2.303-1.13 2.937-1.397A2.014 2.014 0 0 0 7.85 3.58L8.704.365 7.332 0l-.854 3.216Z"/><path id="g" d="M6.015.021 3.968.378c-.493.085-.925.379-1.187.805-.34.555-1.207 1.934-1.886 2.758C.1 4.904-.226 7.057.166 8.74c.313 1.342 1.031 2.3 2.077 2.771 2.199.99 4.284-.056 5.079-.551a.139.139 0 0 1 .131-.009c.473.218.681.451.621.694-.085.345-.05.712.098 1.033.15.326.411.591.735.746l.774.37a.073.073 0 0 1 .042.065v1.865c0 .352.09.701.261 1.01l2.24 4.032a1.617 1.617 0 0 0 1.415.833c.325 0 .647-.098.919-.285L16.468 20a1.716 1.716 0 0 0 .676-1.903l-.223-.758 1.243-1.912.525-2.088c.106-.42.081-.857-.072-1.262l-.397-1.051a.082.082 0 0 1 .012-.08l1.501-1.96a1.65 1.65 0 0 0-.444-2.404l-1.637-1.007a.662.662 0 0 1-.163-.141l-3.635-4.381a1.671 1.671 0 0 0-1.29-.606H10.6c-.204 0-.403.038-.591.115L8.958.989a.24.24 0 0 1-.09.018h-.974A.19.19 0 0 1 7.75.942L7.357.493A1.465 1.465 0 0 0 6.26 0c-.082 0-.164.007-.246.021Zm-3.19 10.197c-.791-.357-1.131-1.175-1.277-1.8-.337-1.446.036-3.083.442-3.574.709-.86 1.558-2.198 2-2.918a.325.325 0 0 1 .221-.15l2.047-.357a.036.036 0 0 1 .033.012l.395.449a1.61 1.61 0 0 0 1.208.546h.973c.215 0 .425-.041.624-.122l1.051-.426a.156.156 0 0 1 .059-.011h1.963c.077 0 .149.034.198.093l3.635 4.38c.145.176.317.325.511.445l1.637 1.007a.226.226 0 0 1 .104.152c.007.037.01.11-.043.18l-1.5 1.96a1.493 1.493 0 0 0-.214 1.444l.397 1.051c.05.133.059.277.024.415l-.467 1.859-1.128 1.734a1.366 1.366 0 0 0-.165 1.131l.23.78a.3.3 0 0 1-.118.334l-1.911 1.313a.199.199 0 0 1-.16.03.199.199 0 0 1-.129-.098l-2.24-4.032a.662.662 0 0 1-.083-.32V13.86a1.5 1.5 0 0 0-.85-1.346l-.774-.37c-.055-.027-.082-.091-.066-.157a1.75 1.75 0 0 0-.395-1.6c-.245-.285-.585-.528-1.01-.724a1.556 1.556 0 0 0-1.477.093c-.427.267-1.343.747-2.403.747-.431 0-.886-.08-1.341-.285Z"/><path id="i" d="M5.3.683a8.649 8.649 0 0 0-2.758 1.86A8.649 8.649 0 0 0 .683 5.3 8.628 8.628 0 0 0 0 8.68a2.14 2.14 0 0 0 2.138 2.138h13.084A2.14 2.14 0 0 0 17.36 8.68a8.649 8.649 0 0 0-2.542-6.138A8.649 8.649 0 0 0 12.059.683 8.627 8.627 0 0 0 8.68 0C7.51 0 6.372.23 5.3.683Z"/><path id="k" d="M5.3.683a8.65 8.65 0 0 0-2.758 1.86A8.648 8.648 0 0 0 .683 5.3 8.627 8.627 0 0 0 0 8.68a2.14 2.14 0 0 0 2.138 2.138h13.084A2.14 2.14 0 0 0 17.36 8.68a8.647 8.647 0 0 0-2.542-6.138A8.648 8.648 0 0 0 12.059.683 8.628 8.628 0 0 0 8.68 0C7.51 0 6.372.23 5.3.683Z"/><path id="m" d="M0 62h71.768V0H0z"/><path id="o" d="M4.072 3.052a3.055 3.055 0 0 0 3.051 3.052 3.055 3.055 0 0 0 3.052-3.052A3.055 3.055 0 0 0 7.123 0a3.055 3.055 0 0 0-3.051 3.052Zm1.155 0c0-1.046.85-1.897 1.896-1.897 1.046 0 1.897.851 1.897 1.897s-.85 1.897-1.897 1.897a1.899 1.899 0 0 1-1.896-1.897ZM4.35 7.615a7.1 7.1 0 0 0-2.264 1.526A7.098 7.098 0 0 0 .56 11.406 7.08 7.08 0 0 0 0 14.178c0 .322.26.582.582.582h13.083c.322 0 .582-.26.582-.582a7.098 7.098 0 0 0-2.086-5.037 7.1 7.1 0 0 0-2.265-1.526 7.08 7.08 0 0 0-2.773-.56 7.08 7.08 0 0 0-2.773.56Zm2.773.603a5.969 5.969 0 0 1 5.933 5.379H1.19a5.969 5.969 0 0 1 5.932-5.379Z"/><path id="q" d="M4.072 3.052a3.055 3.055 0 0 0 3.051 3.052 3.055 3.055 0 0 0 3.052-3.052A3.055 3.055 0 0 0 7.123 0a3.055 3.055 0 0 0-3.051 3.052Zm1.155 0c0-1.046.85-1.897 1.896-1.897 1.046 0 1.897.851 1.897 1.897s-.85 1.897-1.897 1.897a1.899 1.899 0 0 1-1.896-1.897ZM4.35 7.615a7.1 7.1 0 0 0-2.264 1.526A7.1 7.1 0 0 0 .56 11.406 7.08 7.08 0 0 0 0 14.178c0 .322.26.582.581.582h13.084c.321 0 .582-.26.582-.582a7.1 7.1 0 0 0-2.086-5.037 7.1 7.1 0 0 0-2.265-1.526 7.08 7.08 0 0 0-2.773-.56 7.08 7.08 0 0 0-2.773.56Zm2.773.603a5.969 5.969 0 0 1 5.933 5.379H1.19a5.969 5.969 0 0 1 5.932-5.379Z"/><path id="s" d="M4.072 3.052a3.055 3.055 0 0 0 3.051 3.052 3.055 3.055 0 0 0 3.052-3.052A3.055 3.055 0 0 0 7.123 0a3.055 3.055 0 0 0-3.051 3.052Zm1.155 0c0-1.046.85-1.897 1.896-1.897 1.046 0 1.897.851 1.897 1.897s-.85 1.897-1.897 1.897a1.899 1.899 0 0 1-1.896-1.897ZM4.35 7.615a7.1 7.1 0 0 0-2.264 1.526A7.1 7.1 0 0 0 .56 11.406 7.08 7.08 0 0 0 0 14.178c0 .322.26.582.581.582h13.084c.321 0 .582-.26.582-.582a7.099 7.099 0 0 0-2.086-5.037 7.1 7.1 0 0 0-2.265-1.526 7.08 7.08 0 0 0-2.773-.56 7.08 7.08 0 0 0-2.773.56Zm2.773.603a5.969 5.969 0 0 1 5.933 5.379H1.19a5.969 5.969 0 0 1 5.932-5.379Z"/><path id="u" d="M4.072 3.052a3.055 3.055 0 0 0 3.051 3.052 3.055 3.055 0 0 0 3.052-3.052A3.055 3.055 0 0 0 7.123 0a3.055 3.055 0 0 0-3.051 3.052Zm1.155 0c0-1.046.85-1.897 1.896-1.897 1.046 0 1.897.851 1.897 1.897s-.85 1.897-1.897 1.897a1.899 1.899 0 0 1-1.896-1.897ZM4.35 7.615a7.099 7.099 0 0 0-2.264 1.526A7.099 7.099 0 0 0 .56 11.406 7.08 7.08 0 0 0 0 14.178c0 .322.26.582.581.582h13.084c.321 0 .582-.26.582-.582a7.099 7.099 0 0 0-2.086-5.037 7.1 7.1 0 0 0-2.265-1.526 7.079 7.079 0 0 0-2.773-.56 7.08 7.08 0 0 0-2.773.56Zm2.773.603a5.969 5.969 0 0 1 5.933 5.379H1.19a5.969 5.969 0 0 1 5.932-5.379Z"/></defs><g fill="none" fill-rule="evenodd"><g transform="translate(8.75 9)"><mask id="b" fill="#fff"><use xlink:href="#a"/></mask><path fill="#1A1919" d="M31 1.255c-4.016 0-7.911.786-11.578 2.337a29.746 29.746 0 0 0-9.455 6.375 29.747 29.747 0 0 0-6.375 9.455A29.558 29.558 0 0 0 1.255 31c0 4.016.786 7.911 2.337 11.578a29.746 29.746 0 0 0 6.375 9.455 29.746 29.746 0 0 0 9.455 6.375A29.558 29.558 0 0 0 31 60.745c4.016 0 7.911-.786 11.578-2.337a29.747 29.747 0 0 0 9.455-6.375 29.746 29.746 0 0 0 6.375-9.455A29.558 29.558 0 0 0 60.745 31c0-4.016-.786-7.911-2.337-11.578a29.747 29.747 0 0 0-6.375-9.455 29.747 29.747 0 0 0-9.455-6.375A29.558 29.558 0 0 0 31 1.255M31 62c-4.185 0-8.245-.82-12.067-2.436A31.005 31.005 0 0 1 9.08 52.92a31.004 31.004 0 0 1-6.643-9.854A30.806 30.806 0 0 1 0 31c0-4.185.82-8.245 2.436-12.067A31.002 31.002 0 0 1 9.08 9.08a31.003 31.003 0 0 1 9.854-6.643A30.807 30.807 0 0 1 31 0c4.185 0 8.245.82 12.067 2.436A31.002 31.002 0 0 1 52.92 9.08a31.002 31.002 0 0 1 6.643 9.854A30.807 30.807 0 0 1 62 31c0 4.185-.82 8.245-2.436 12.067a31.004 31.004 0 0 1-6.644 9.853 31.003 31.003 0 0 1-9.854 6.643A30.806 30.806 0 0 1 31 62" mask="url(#b)"/></g><path fill="#FFFEFD" d="M63.215 61.198h7.698a4.436 4.436 0 0 0-.884-1.114 4.39 4.39 0 0 0-5.93 0 4.436 4.436 0 0 0-.884 1.114m10.39 4.276H60.523a2.14 2.14 0 0 1-2.138-2.138 8.649 8.649 0 0 1 2.542-6.138 8.649 8.649 0 0 1 6.138-2.542 8.65 8.65 0 0 1 6.138 2.542 8.65 8.65 0 0 1 2.542 6.138 2.14 2.14 0 0 1-2.138 2.138"/><path fill="#1A1919" d="M39.754 20.046a19.844 19.844 0 0 0-14.078 5.831 19.844 19.844 0 0 0-5.831 14.078 19.844 19.844 0 0 0 5.831 14.078 19.844 19.844 0 0 0 14.078 5.831 19.844 19.844 0 0 0 14.078-5.831 19.843 19.843 0 0 0 5.831-14.078 19.843 19.843 0 0 0-5.831-14.078 19.844 19.844 0 0 0-14.078-5.831m0 41.363a21.381 21.381 0 0 1-15.17-6.284 21.381 21.381 0 0 1-6.284-15.17 21.38 21.38 0 0 1 6.284-15.17 21.381 21.381 0 0 1 15.17-6.283 21.381 21.381 0 0 1 15.17 6.284 21.381 21.381 0 0 1 6.284 15.17 21.381 21.381 0 0 1-6.284 15.17 21.38 21.38 0 0 1-15.17 6.283"/><g transform="translate(19.44 43.553)"><mask id="d" fill="#fff"><use xlink:href="#c"/></mask><path fill="#1A1919" d="M-.024 14.801h13.116V-.092H-.024z" mask="url(#d)"/></g><g transform="translate(28.973 19.281)"><mask id="f" fill="#fff"><use xlink:href="#e"/></mask><path fill="#1A1919" d="M-.06 16.222h30.527V-.024H-.06z" mask="url(#f)"/></g><g transform="translate(29.319 33.934)"><mask id="h" fill="#fff"><use xlink:href="#g"/></mask><path fill="#1A1919" d="M-.25 21.624h20.404V-.089H-.25z" mask="url(#h)"/></g><g transform="translate(4.024 18.316)"><mask id="j" fill="#fff"><use xlink:href="#i"/></mask><path fill="#FFFEFD" d="M-.024 10.842h17.408V-.024H-.024z" mask="url(#j)"/></g><g transform="translate(58.384 18.071)"><mask id="l" fill="#fff"><use xlink:href="#k"/></mask><path fill="#FFFEFD" d="M-.024 10.842h17.408V-.024H-.024z" mask="url(#l)"/></g><g transform="translate(4 9)"><path fill="#FFFEFD" d="M9.452 43.086a.34.34 0 1 0 .001.682.34.34 0 0 0 0-.682m0 4.949a4.614 4.614 0 0 1-4.61-4.608 4.614 4.614 0 0 1 4.61-4.609 4.614 4.614 0 0 1 4.608 4.609 4.614 4.614 0 0 1-4.609 4.608"/><path fill="#FFFEFD" d="M3.97 53.385h10.964a5.55 5.55 0 0 0-1.546-2.961 5.55 5.55 0 0 0-3.936-1.63 5.53 5.53 0 0 0-3.936 1.63 5.55 5.55 0 0 0-1.546 2.961m12.024 3.113H2.91A2.14 2.14 0 0 1 .772 54.36a8.65 8.65 0 0 1 2.542-6.138 8.65 8.65 0 0 1 6.138-2.542 8.649 8.649 0 0 1 6.138 2.542 8.648 8.648 0 0 1 2.542 6.138 2.14 2.14 0 0 1-2.138 2.138"/><mask id="n" fill="#fff"><use xlink:href="#m"/></mask><path fill="#FFFEFD" d="M2.741 54.432h13.266v-6.246H2.741z" mask="url(#n)"/></g><g transform="translate(5.58 12.817)"><mask id="p" fill="#fff"><use xlink:href="#o"/></mask><path fill="#1A1919" d="M-.024 14.784h14.295V-.024H-.024z" mask="url(#p)"/></g><g transform="translate(59.94 12.844)"><mask id="r" fill="#fff"><use xlink:href="#q"/></mask><path fill="#1A1919" d="M-.024 14.784h14.295V-.024H-.024z" mask="url(#r)"/></g><g transform="translate(6.329 49.474)"><mask id="t" fill="#fff"><use xlink:href="#s"/></mask><path fill="#1A1919" d="M-.024 14.784h14.295V-.024H-.024z" mask="url(#t)"/></g><g transform="translate(59.946 49.537)"><mask id="v" fill="#fff"><use xlink:href="#u"/></mask><path fill="#1A1919" d="M-.024 14.784h14.295V-.024H-.024z" mask="url(#v)"/></g></g></svg>