<svg xmlns="http://www.w3.org/2000/svg" width="80" height="80"><path fill="#000" fill-rule="evenodd" d="M72 48.88c-.576 0-.84.266-1.336.82-.534.595-1.266 1.411-2.665 1.411-1.398 0-2.13-.816-2.664-1.412-.496-.553-.76-.818-1.337-.818-.576 0-.84.265-1.335.818-.534.596-1.266 1.412-2.665 1.412-1.272 0-1.978-.645-2.664-1.412-.496-.553-.76-.818-1.336-.818a1.18 1.18 0 0 0-.61.148c-.795.45-1.391 2.082-3.39 2.082-2.585 0-2.644-2.586-4.32-2.196-1.029.24-1.465 2.196-3.68 2.196-1.398 0-2.13-.816-2.664-1.412-.496-.553-.76-.818-1.335-.818-.576 0-.84.265-1.336.818-.534.596-1.266 1.412-2.664 1.412-1.399 0-2.13-.816-2.665-1.412-.496-.553-.76-.818-1.335-.818-.576 0-.84.266-1.336.818-.536.599-1.267 1.412-2.664 1.412-1.399 0-2.13-.816-2.665-1.412-.495-.553-.759-.818-1.335-.818-1.385 0-1.587 2.23-4 2.23-1.398 0-2.13-.816-2.664-1.412-.496-.553-.76-.818-1.335-.818-.576 0-.84.265-1.336.818-.534.596-1.266 1.412-2.664 1.412-1.398 0-2.13-.816-2.664-1.412-.496-.553-.76-.818-1.336-.818v-1.785c1.399 0 2.13.816 2.665 1.412.495.553.759.819 1.335.819s.84-.266 1.335-.819c.535-.596 1.266-1.412 2.665-1.412 1.398 0 2.13.816 2.664 1.412.496.553.76.819 1.335.819.576 0 .84-.266 1.336-.819.797-.89 1.555-1.497 2.904-1.404 2.175.153 2.435 2.223 3.76 2.223 1.385 0 1.584-2.231 4-2.231 1.398 0 2.13.816 2.664 1.412.496.553.76.819 1.336.819.576 0 .84-.266 1.335-.819.534-.596 1.266-1.412 2.665-1.412 1.398 0 2.13.816 2.664 1.412.496.553.76.819 1.335.819 1.362 0 1.624-2.231 4-2.231 2.372 0 2.64 2.23 4 2.23.576 0 .84-.265 1.336-.818.529-.59 1.26-1.407 2.65-1.412 2.407 0 2.644 2.23 4.014 2.23.576 0 .84-.265 1.336-.818.534-.596 1.266-1.412 2.664-1.412 1.4 0 2.13.816 2.665 1.412.496.553.76.819 1.336.819.576 0 .84-.266 1.336-.82.535-.595 1.266-1.411 2.665-1.411v1.785Zm-8.002 4.462.054.002v1.785c-.614-.02-.883.252-1.39.817-.533.596-1.265 1.412-2.664 1.412-1.398 0-2.13-.816-2.664-1.412-.496-.553-.76-.819-1.336-.819-.576 0-.84.266-1.336.819-.534.596-1.266 1.412-2.664 1.412-1.399 0-2.13-.816-2.665-1.412-.495-.553-.76-.819-1.335-.819-.576 0-.84.266-1.336.819-.534.596-1.266 1.412-2.664 1.412-1.398 0-2.13-.816-2.664-1.412-.496-.553-.76-.819-1.335-.819-.576 0-.84.266-1.336.819-.534.596-1.266 1.412-2.664 1.412-1.399 0-2.13-.816-2.665-1.412-.496-.553-.76-.819-1.335-.819-.576 0-.84.266-1.336.819-.534.596-1.266 1.412-2.664 1.412-1.399 0-2.13-.816-2.665-1.412-.495-.553-.759-.819-1.335-.819s-.84.266-1.335.819c-.535.596-1.266 1.412-2.665 1.412-1.398 0-2.13-.816-2.664-1.412-.5-.558-.773-.838-1.387-.817v-1.785c1.26-.017 1.962.57 2.716 1.41.496.554.76.82 1.335.82.576 0 .84-.266 1.336-.82.534-.595 1.266-1.412 2.664-1.412 1.398 0 2.13.817 2.664 1.413.496.553.76.818 1.336.818.576 0 .84-.265 1.335-.818.534-.596 1.266-1.413 2.665-1.413 1.398 0 2.13.817 2.664 1.413.496.553.76.818 1.336.818.576 0 .84-.265 1.335-.818.534-.596 1.266-1.413 2.665-1.413 1.398 0 2.13.817 2.664 1.413.496.553.76.818 1.335.818.576 0 .84-.265 1.335-.818.535-.596 1.266-1.413 2.665-1.413 1.398 0 2.13.817 2.664 1.413.496.553.76.818 1.336.818.576 0 .84-.265 1.336-.818.534-.596 1.265-1.413 2.664-1.413 1.399 0 2.13.817 2.665 1.413.495.553.76.818 1.335.818.576 0 .84-.265 1.336-.818.534-.596 1.266-1.413 2.664-1.413Zm-8 6.247c.037 0 .07.003.107.004v1.784c-.662-.04-.946.261-1.443.816-.534.596-1.266 1.412-2.664 1.412-1.399 0-2.13-.816-2.665-1.412-.495-.553-.76-.82-1.335-.82-.576 0-.84.267-1.336.82-.534.596-1.266 1.412-2.664 1.412-1.398 0-2.13-.816-2.664-1.412-.496-.553-.76-.82-1.335-.82-.576 0-.84.267-1.336.82-.534.596-1.266 1.412-2.664 1.412-1.399 0-2.13-.816-2.665-1.412-.496-.553-.76-.82-1.335-.82-.576 0-.84.267-1.336.82-.534.596-1.266 1.412-2.664 1.412-1.399 0-2.13-.816-2.665-1.412-.497-.556-.781-.856-1.439-.816v-1.784c1.355-.042 2.082.643 2.768 1.408.496.553.76.819 1.336.819.576 0 .84-.266 1.335-.819.534-.596 1.266-1.412 2.665-1.412 1.398 0 2.13.816 2.664 1.412.496.553.76.819 1.336.819.576 0 .84-.266 1.335-.819.534-.596 1.266-1.412 2.665-1.412 1.398 0 2.13.816 2.664 1.412.496.553.76.819 1.335.819.576 0 .84-.266 1.335-.819.535-.596 1.266-1.412 2.665-1.412 1.398 0 2.13.816 2.664 1.412.496.553.76.819 1.336.819.576 0 .84-.266 1.336-.819.534-.596 1.265-1.412 2.664-1.412ZM31.38 40.957h16.299v-4.013h-16.3v4.013Zm0-5.733h16.299V31.17h-16.3v4.054Zm-1.682-14.15h-.038V47.06c.44-.335.999-.629 1.72-.738v-3.646h16.299v3.612a3.953 3.953 0 0 1 1.638.21V21.014A4.102 4.102 0 0 0 45.222 17a4.1 4.1 0 0 0-4.096 4.095h1.638a2.46 2.46 0 0 1 2.458-2.457 2.46 2.46 0 0 1 2.457 2.457v8.437h-16.3v-8.459h-.043a4.1 4.1 0 0 0-4.093-4.013 4.1 4.1 0 0 0-4.095 4.095h1.638a2.46 2.46 0 0 1 2.457-2.457 2.46 2.46 0 0 1 2.455 2.375Z"/></svg>