<svg xmlns="http://www.w3.org/2000/svg" width="80" height="80"><g fill="none" fill-rule="evenodd" stroke="#000" stroke-linecap="round" stroke-linejoin="round" stroke-width="1.6"><path d="M45.863 61.084A5.863 5.863 0 0 1 40 66.948a5.863 5.863 0 0 1-5.864-5.864A5.863 5.863 0 0 1 40 55.22a5.863 5.863 0 0 1 5.863 5.864ZM54.097 46.987c-7.785-7.785-20.408-7.785-28.196 0l4.975 4.975c5.039-5.039 13.208-5.039 18.246 0l4.975-4.975Z"/><path d="M64.049 37.035c-13.283-13.283-34.816-13.283-48.098 0l4.974 4.975c10.534-10.534 27.615-10.534 38.149 0l4.975-4.975Z"/><path d="M74 27.084c-18.779-18.779-49.224-18.779-68 0l4.975 4.975c16.03-16.03 42.02-16.03 58.05 0L74 27.084Z"/></g></svg>