<svg xmlns="http://www.w3.org/2000/svg" width="80" height="80"><path fill="#000" fill-rule="evenodd" d="M72.277 56.49H70.2v-8.706a.862.862 0 0 0-.861-.861H10.802a.862.862 0 0 0-.862.861v8.707H7.723v-8.54l3.763-9.562c.713-.366 2.84-1.393 6.113-2.454l.005-.002c.39-.126.797-.253 1.22-.38 4.442-1.328 11.598-2.859 20.46-2.613a28.37 28.37 0 0 0 1.574 0c8.861-.246 16.017 1.285 20.46 2.613.422.127.827.253 1.218.38l.007.002c3.265 1.058 5.39 2.084 6.106 2.45l3.628 9.56v8.546Zm-3.8 8.303h-4.819v-9.952a.862.862 0 0 0-.862-.861H17.345a.862.862 0 0 0-.862.861v9.952h-4.82V48.646h56.815v16.147Zm-32.35-33.59c-2.95.052-5.882.289-8.753.71a64.124 64.124 0 0 0-9.104 2.007l-.064.02v-8.201c1.4-.385 5.044-1.26 8.694-1.088.177.007.356.007.536 0 3.64-.17 7.29.704 8.69 1.088v5.463ZM61.87 33.92a64.124 64.124 0 0 0-9.104-2.008 68.864 68.864 0 0 0-8.752-.71V25.74c1.4-.385 5.044-1.26 8.693-1.088.177.007.356.007.536 0 3.64-.171 7.29.704 8.69 1.088v8.2l-.063-.019ZM15.085 20.801a.862.862 0 0 0 .862-.862v-3.512c0-.94.764-1.704 1.704-1.704h44.84c.939 0 1.703.765 1.703 1.704v3.512c0 .476.386.862.862.862h3.422v15.584a46.995 46.995 0 0 0-4.82-1.897v-9.396a.862.862 0 0 0-.598-.82c-.2-.065-4.965-1.574-9.894-1.343a4.362 4.362 0 0 1-.38 0c-4.931-.231-9.696 1.278-9.896 1.343a.862.862 0 0 0-.599.82v6.1a70.14 70.14 0 0 0-1.48.026c-.492.013-.99.013-1.48 0a70.478 70.478 0 0 0-1.481-.026v-6.1a.862.862 0 0 0-.599-.82c-.2-.065-4.964-1.574-9.894-1.343a4.34 4.34 0 0 1-.38 0c-4.932-.231-9.695 1.278-9.896 1.343a.862.862 0 0 0-.598.82v9.396a46.974 46.974 0 0 0-4.82 1.897V20.8h3.422Zm55.116 16.816V19.94a.862.862 0 0 0-.862-.861h-3.422v-2.65A3.431 3.431 0 0 0 62.49 13H17.65a3.431 3.431 0 0 0-3.426 3.427v2.65h-3.422a.862.862 0 0 0-.862.862v17.673l-3.88 9.86c-.04.1-.06.208-.06.316v9.565c0 .475.386.861.862.861H9.94v7.441c0 .476.386.862.862.862h6.543a.862.862 0 0 0 .861-.862v-9.952h43.729v9.952c0 .476.385.862.861.862h6.544a.862.862 0 0 0 .861-.862v-7.44h2.937a.862.862 0 0 0 .862-.862v-9.565a.862.862 0 0 0-.056-.306l-3.743-9.865Z"/></svg>