<svg xmlns="http://www.w3.org/2000/svg" width="80" height="80"><g fill="none" fill-rule="evenodd"><path fill="#000" d="M42.425 13.326a.782.782 0 0 1 1.287.89L9.446 65.783a1.88 1.88 0 1 1-3.093-2.138l36.072-50.32Z"/><path stroke="#000" stroke-width="1.4" d="M40.709 30.711a6.433 6.433 0 1 1 12.866 0 6.433 6.433 0 0 1-12.866 0Z"/><path stroke="#000" stroke-width="1.4" d="M47.135 41.902a6.433 6.433 0 1 1 12.866 0 6.433 6.433 0 0 1-12.866 0ZM34.2 41.846a6.433 6.433 0 1 1 12.865 0 6.433 6.433 0 0 1-12.866 0Z"/><path stroke="#000" stroke-width="1.4" d="M40.73 53.065a6.433 6.433 0 1 1 12.867 0 6.433 6.433 0 0 1-12.866 0ZM53.62 53.065a6.433 6.433 0 1 1 12.865 0 6.433 6.433 0 0 1-12.866 0ZM27.81 53.065a6.433 6.433 0 1 1 12.865 0 6.433 6.433 0 0 1-12.866 0Z"/><path stroke="#000" stroke-linecap="round" stroke-linejoin="round" stroke-width="1.4" d="m20.012 60.699 26.994-46.965L74 60.699z"/></g></svg>