<svg xmlns="http://www.w3.org/2000/svg" width="80" height="80"><g fill="none" fill-rule="evenodd" stroke="#000" stroke-linecap="round" stroke-linejoin="round" stroke-width="1.6"><path d="M60.547 18.74s-1.851-4.207-9.908-4.207c-8.057 0-9.91 4.207-9.91 4.207M62.043 24.788h-1.496V18.74h1.496c1.504 0 2.723 1.147 2.723 2.562v.924c0 1.415-1.219 2.562-2.723 2.562ZM40.73 24.788h-1.496c-1.504 0-2.723-1.147-2.723-2.562v-.924c0-1.415 1.22-2.562 2.723-2.562h1.496v6.048Z"/><path d="M40.73 18.74s2.919 2.066 4.868 2.066h10.08c1.95 0 4.87-2.066 4.87-2.066M45.819 33.534v5.012l4.82 3.797 4.819-3.797v-5.013M32.612 42.41l13.207-3.864"/><path d="m55.458 38.546 13.191 3.86c3.182.93 5.351 3.702 5.351 6.838v23.791"/><path d="m50.639 42.343 5.04 4.144s4.052-2.391 5.941-6.138"/><path d="m47.173 45.192 2.141 2.726-3.528 16.71a2.64 2.64 0 0 0 .597 2.276l3.72 4.325a.871.871 0 0 0 1.316-.016l3.53-4.323c.515-.63.716-1.44.551-2.22l-3.537-16.752 2.141-2.726"/><path d="m50.639 42.343-5.04 4.144s-4.053-2.391-5.942-6.138M51.963 47.918h-2.649M48.063 10.287s1.693 1.38 2.576 1.38 2.575-1.38 2.575-1.38M65.09 50.717c-1.622-.594-3.245-.594-4.867 0a.575.575 0 0 0-.379.45c-.14.968-.92 1.744-1.927 1.935a.579.579 0 0 0-.485.558v1.026c0 2.564 1.13 5.014 3.118 6.767l1.722 1.518c.217.19.553.19.769 0l1.722-1.518c1.989-1.753 3.118-4.203 3.118-6.767V53.66a.579.579 0 0 0-.485-.558c-1.006-.191-1.788-.967-1.927-1.934a.575.575 0 0 0-.379-.451ZM40.73 18.74v7.231c0 4.618 3.978 8.362 8.885 8.362h2.048c4.906 0 8.884-3.744 8.884-8.362v-7.23"/><path d="M61.93 18.74V15.53C61.93 10.266 57.397 6 51.805 6h-2.333c-5.592 0-10.125 4.266-10.125 9.529v3.211M43.416 55.137l-6.011-3.398v-3.767c0-.686-.59-1.242-1.32-1.242h-2.02c-.729 0-1.32.556-1.32 1.242v1.133l-4.35-2.46c.023-1.018.034-1.928.034-2.686 0-7.395-1.116-11.683-3.611-11.683s-3.61 4.288-3.61 11.683c0 .759.01 1.669.031 2.69l-4.416 2.495v-1.172c0-.686-.59-1.242-1.319-1.242h-2.02c-.73 0-1.32.556-1.32 1.242v3.806l-5.942 3.359a.426.426 0 0 0-.222.369v2.127c0 .285.289.492.58.415l14.943-3.929c.222 4.135.567 8.571 1.058 12.108l-5.37 2.424a.619.619 0 0 0-.374.56v1.566c0 .403.401.7.817.603l5.617-1.298c.436 1.826.949 2.953 1.547 2.953.583 0 1.088-1.13 1.52-2.959l5.644 1.304c.416.096.817-.2.817-.603v-1.566a.619.619 0 0 0-.374-.56l-5.4-2.437c.492-3.536.845-7.968 1.074-12.1l14.959 3.934c.291.077.58-.13.58-.415v-2.127a.426.426 0 0 0-.222-.37Z"/></g></svg>