<svg xmlns="http://www.w3.org/2000/svg" xmlns:xlink="http://www.w3.org/1999/xlink" width="80" height="80"><defs><path id="a" d="M0 63.896h68V0H0z"/></defs><g fill="none" fill-rule="evenodd"><path fill="#000" d="M9.173 71.896h61.654V41.712H9.173v30.184Zm1.881-1.881h57.892V43.593H11.054v26.422Z"/><g transform="translate(6 8)"><path fill="#000" d="M27.806 62.015h12.388v-7.686A6.201 6.201 0 0 0 34 48.135a6.201 6.201 0 0 0-6.194 6.194v7.686Zm14.27 1.881H25.923V54.33c0-4.453 3.623-8.075 8.076-8.075s8.075 3.622 8.075 8.075v9.567ZM11.005 62.015H18.3v-6.918a3.651 3.651 0 0 0-3.647-3.648 3.651 3.651 0 0 0-3.647 3.648v6.918Zm9.176 1.881H9.124v-8.8a5.535 5.535 0 0 1 5.528-5.528 5.535 5.535 0 0 1 5.529 5.529v8.8ZM49.7 62.015h7.295v-6.918a3.651 3.651 0 0 0-3.647-3.648 3.651 3.651 0 0 0-3.647 3.648v6.918Zm9.176 1.881H47.82v-8.8a5.535 5.535 0 0 1 5.529-5.528 5.535 5.535 0 0 1 5.528 5.529v8.8Z"/><mask id="b" fill="#fff"><use xlink:href="#a"/></mask><path fill="#000" d="M1.881 33.712H66.12V29.43H1.88v4.282ZM0 35.594h68v-8.045H0v8.045Z" mask="url(#b)"/><path fill="#000" d="M20.468 27.55h26.72c-.893-6.615-6.58-11.662-13.36-11.662-6.78 0-12.466 5.047-13.36 11.661Zm28.755 1.88h-30.79l.06-.997c.488-8.09 7.224-14.426 15.335-14.426s14.847 6.337 15.335 14.426l.06.997ZM7.176 27.562h5.903V7.928a2.955 2.955 0 0 0-2.952-2.951 2.955 2.955 0 0 0-2.951 2.951v19.634Zm7.784 1.882H5.295V7.928a4.838 4.838 0 0 1 4.832-4.833 4.838 4.838 0 0 1 4.833 4.833v21.516Z" mask="url(#b)"/><path fill="#000" d="M3.138 11.45h13.979V9.569H3.138zM9.045 4.036h1.881V0H9.045zM54.921 27.562h5.903V7.928a2.955 2.955 0 0 0-2.952-2.951 2.955 2.955 0 0 0-2.951 2.951v19.634Zm7.784 1.882H53.04V7.928a4.838 4.838 0 0 1 4.832-4.833 4.838 4.838 0 0 1 4.833 4.833v21.516Z" mask="url(#b)"/><path fill="#000" d="M50.883 11.45h13.979V9.569H50.883zM56.79 4.036h1.881V0H56.79zM33.066 10.657a5.014 5.014 0 0 1-3.57-1.479l1.33-1.33a3.145 3.145 0 0 0 2.24.927 3.166 3.166 0 0 0 1.77-5.792l1.052-1.558a5.045 5.045 0 0 1 2.225 4.184 5.053 5.053 0 0 1-5.047 5.048" mask="url(#b)"/><path fill="#000" d="M32.864 14.442h1.881V9.716h-1.881z" mask="url(#b)"/></g></g></svg>