<?xml version="1.0" encoding="utf-8"?>
<!-- Generator: Adobe Illustrator 25.4.1, SVG Export Plug-In . SVG Version: 6.00 Build 0)  -->
<svg version="1.1" id="Layer_1" xmlns="http://www.w3.org/2000/svg" xmlns:xlink="http://www.w3.org/1999/xlink" x="0px" y="0px"
	 viewBox="0 0 80 80" style="enable-background:new 0 0 80 80;" xml:space="preserve">
<g>
	<path d="M63.5,21.32c3.06,0,5.55-2.49,5.55-5.55v-4.74c0-3.06-2.49-5.55-5.55-5.55H16.5c-3.06,0-5.55,2.49-5.55,5.55v4.74
		c0,3.06,2.49,5.55,5.55,5.55h5.33v33.39c0,0.46,0.37,0.83,0.83,0.83h6.02v4.78c0,1.59,0.35,3.19,1.02,4.63
		c0.03,0.06,0.07,0.13,0.11,0.18l3.42,4.11v4.44c0,0.46,0.37,0.83,0.83,0.83s0.83-0.37,0.83-0.83v-4.74c0-0.19-0.07-0.38-0.19-0.53
		l-3.54-4.26c-0.54-1.2-0.82-2.52-0.82-3.84v-4.78h24.47c-1.48,1.48-3.18,4.12-3.18,8.46c0,0.46,0.37,0.83,0.83,0.83
		s0.83-0.37,0.83-0.83c0-6.44,4.19-8.45,4.37-8.54c0.02-0.01,0.03-0.01,0.04-0.02c0,0,0.01,0,0.01,0c0.02-0.01,0.04-0.02,0.06-0.04
		c0,0,0,0,0,0c0.02-0.01,0.04-0.03,0.06-0.05c0,0,0,0,0,0c0.02-0.02,0.04-0.03,0.06-0.05l0,0c0.02-0.02,0.04-0.04,0.05-0.06
		c0,0,0,0,0,0c0.02-0.02,0.03-0.04,0.04-0.06c0,0,0-0.01,0.01-0.01c0.01-0.02,0.02-0.04,0.03-0.05c0-0.01,0.01-0.01,0.01-0.02
		c0.01-0.02,0.02-0.03,0.02-0.05c0-0.01,0.01-0.02,0.01-0.03c0.01-0.02,0.01-0.03,0.02-0.05c0-0.01,0.01-0.02,0.01-0.03
		c0-0.02,0.01-0.03,0.01-0.05c0-0.01,0-0.02,0.01-0.03c0-0.02,0.01-0.04,0.01-0.05c0-0.01,0-0.02,0-0.03c0-0.02,0-0.04,0-0.06
		c0-0.01,0-0.01,0-0.02v-0.02c0,0,0,0,0,0V42.92c0-2.4,1.84-4.59,4.58-5.45c0.55-0.17,0.99,0.06,1.2,0.22
		c0.4,0.29,0.63,0.75,0.63,1.24l0.02,9.77l1.91,8.34c0.38,1.66,0.26,3.37-0.28,4.83l-3.57,5.93c-0.08,0.13-0.12,0.28-0.12,0.43v5.47
		c0,0.46,0.37,0.83,0.83,0.83c0.46,0,0.83-0.37,0.83-0.83v-5.23l3.52-5.86c0.72-1.9,0.86-3.94,0.41-5.92l-1.89-8.15v-9.59
		c0-1.01-0.49-1.98-1.31-2.58c-0.79-0.58-1.77-0.75-2.69-0.46c-1.68,0.52-3.08,1.47-4.09,2.65V21.32H63.5z M21.83,12.11v7.55H16.5
		c-2.14,0-3.89-1.74-3.89-3.89v-4.74c0-2.14,1.74-3.89,3.89-3.89H63.5c2.14,0,3.89,1.74,3.89,3.89v4.74c0,2.14-1.74,3.89-3.89,3.89
		h-5.33v-7.55c0-0.46-0.37-0.83-0.83-0.83h-5.25H28.51h-5.84C22.21,11.28,21.83,11.65,21.83,12.11z M29.34,12.94h21.91v28.35
		c-3.54,0.39-6.37,3.21-6.75,6.75h-8.41c-0.39-3.54-3.21-6.37-6.75-6.75V12.94z M56.5,53.88H29.52H23.5V12.94h4.18v29.13
		c0,0.46,0.37,0.83,0.83,0.83c3.29,0,5.97,2.68,5.97,5.97c0,0.46,0.37,0.83,0.83,0.83h9.98c0.46,0,0.83-0.37,0.83-0.83
		c0-3.29,2.68-5.97,5.97-5.97c0.46,0,0.83-0.37,0.83-0.83V12.94h3.58v29.98V53.88z"/>
	<path d="M40.02,33.14c-2.22-0.06-2.66-1.32-2.7-1.48c-0.11-0.44-0.55-0.71-1-0.59c-0.45,0.11-0.72,0.56-0.61,1.01
		c0.03,0.1,0.59,2.23,3.46,2.66v1.1c0,0.46,0.37,0.83,0.83,0.83c0.46,0,0.83-0.37,0.83-0.83v-1.1c1.64-0.33,3.09-1.68,3.42-3.32
		c0.2-1.01,0.22-3.53-3.95-5.14c-2.1-0.81-3.17-2-2.92-3.26c0.23-1.13,1.48-2.1,2.6-2.06c2.23,0.06,2.66,1.33,2.7,1.46
		c0.11,0.44,0.55,0.71,1.01,0.61c0.45-0.11,0.72-0.56,0.61-1.01c-0.03-0.1-0.59-2.23-3.46-2.66v-1.1c0-0.46-0.37-0.83-0.83-0.83
		c-0.46,0-0.83,0.37-0.83,0.83v1.1c-1.64,0.33-3.09,1.68-3.42,3.32c-0.2,1.01-0.22,3.53,3.95,5.14c2.11,0.81,3.17,2,2.92,3.26
		C42.39,32.21,41.18,33.21,40.02,33.14z"/>
</g>
</svg>
