<svg xmlns="http://www.w3.org/2000/svg" width="80" height="80"><g fill="none"><g transform="translate(55.213 31.43)"><mask id="a" fill="#fff"><path d="M0 0h16.787v28.233H0z"/></mask><path fill="#000" d="M.763 28.233a.763.763 0 1 1 0-1.526h8.394c3.526-.122 6.104-2.689 6.104-6.105V.763a.763.763 0 1 1 1.526 0v19.84c0 4.269-3.198 7.478-7.604 7.629H.763Z" mask="url(#a)"/></g><path fill="#000" d="M57.502 64.874a.763.763 0 0 1-.763-.763v-5.212a.763.763 0 1 1 1.526 0v5.212a.763.763 0 0 1-.763.763m7.631.129a.763.763 0 0 1-.763-.763V58.9a.763.763 0 1 1 1.526 0v5.341a.763.763 0 0 1-.763.763m-17.651-.007a.763.763 0 0 1-.656-.857l1.526-11.446c.24-2.112 2.207-3.715 4.572-3.715h5.341v-9.085a.763.763 0 1 1 1.526 0v9.848a.763.763 0 0 1-.763.763h-6.104c-1.37 0-2.888.889-3.057 2.376l-1.528 11.46a.763.763 0 0 1-.857.656Z"/><path fill="#000" d="M52.162 65.003a.763.763 0 0 1-.753-.888l1.525-9.156a.763.763 0 0 1 .753-.638h9.56c1.817 0 3.412-1.409 3.412-3.015V36.453c0-1.138-.663-2.618-1.577-3.516-.495-.488-1.006-.726-1.463-.745h-3.013c-.497.072-.82.24-.986.502a.842.842 0 0 1-.052.071l-4.85 6.01a.763.763 0 0 1-.594.285h-5.196c-.834 0-1.345 1.333-1.345 2.289h7.781c.65 0 1.307-.204 1.599-.496l3.68-3.91a.763.763 0 1 1 1.111 1.047l-3.696 3.926c-.711.712-1.855.959-2.694.959H46.82a.763.763 0 0 1-.763-.763v-.763c0-1.876 1.075-3.815 2.872-3.815h4.83l4.598-5.696c.302-.456.904-1.012 2.078-1.163a1.21 1.21 0 0 1 .12-.009h3.053c.857.002 1.745.395 2.545 1.183 1.216 1.196 2.033 3.047 2.033 4.604v14.853c0 2.462-2.262 4.54-4.939 4.54h-8.913l-1.42 8.52a.764.764 0 0 1-.751.637m10.68-45.019c-2.25 0-3.052 1.97-3.052 3.815 0 1.844.802 3.815 3.052 3.815s3.053-1.97 3.053-3.815c0-1.844-.802-3.815-3.053-3.815m0 9.156c-2.738 0-4.578-2.147-4.578-5.341 0-3.195 1.84-5.341 4.578-5.341 2.739 0 4.579 2.146 4.579 5.34 0 3.195-1.84 5.342-4.579 5.342m-42.49 13.67a.762.762 0 0 1-.447-1.381c.173-.125.313-.42.348-.735.025-.224.049-.966-.7-1.068l-4.672-.8a.762.762 0 0 1-.521-1.152l2.219-3.61a.763.763 0 1 1 1.3.799l-1.628 2.65 3.535.605c1.318.18 2.144 1.31 1.984 2.746-.084.75-.448 1.425-.973 1.803a.762.762 0 0 1-.445.144"/><path fill="#000" d="M55.667 42.856h-.001l-44.916-.072c-.877.026-1.733-.466-2.258-1.339-.622-1.035-.657-2.336-.089-3.315l4.777-8.046c1.627-2.52 3.312-2.646 5.928-2.646h4.837c2.326 0 5.6 1.952 5.6 6.29a.763.763 0 1 1-1.526 0c0-3.599-2.745-4.764-4.074-4.764h-4.837c-2.51 0-3.49.158-4.631 1.924l-4.758 8.015c-.33.568-.198 1.292.08 1.755.113.186.414.606.923.6l44.946.072a.763.763 0 0 1-.001 1.526"/><g transform="translate(16.272 15)"><mask id="b" fill="#fff"><path d="M0 0h9.818v11.2H0z"/></mask><path fill="#000" d="M4.91 1.526c-2.498 0-3.384 2.195-3.384 4.074 0 1.88.886 4.074 3.383 4.074S8.292 7.48 8.292 5.6s-.886-4.074-3.383-4.074m0 9.674C2.02 11.2 0 8.897 0 5.6 0 2.303 2.019 0 4.91 0 7.8 0 9.817 2.303 9.817 5.6c0 3.297-2.018 5.6-4.909 5.6" mask="url(#b)"/></g><path fill="#000" d="M25.79 42.081a.763.763 0 0 1 .76-.765l16.312-.056v-2.003a.78.78 0 0 1 .037-.236l3-9.366H30.904l-3.012 9.822a.763.763 0 0 1-.73.54l-3.232.002a.763.763 0 1 1-.001-1.526l2.67-.002 3.011-9.823a.763.763 0 0 1 .73-.539h16.605a.763.763 0 0 1 .727.996l-3.284 10.248v2.648c0 .42-.34.762-.76.763l-17.073.058a.764.764 0 0 1-.766-.76Zm30.95 4.653H13.244a.763.763 0 1 1 0-1.526H56.74a.763.763 0 1 1 0 1.526"/></g></svg>