<svg width="25" height="25" viewBox="0 0 25 25" fill="none" xmlns="http://www.w3.org/2000/svg">
<g clip-path="url(#clip0_6040_5423)">
<path d="M12 24.981L11.633 24.585C11.239 24.161 2 15.2628 2 9.88184C2 4.36784 6.486 -0.118164 12 -0.118164C17.514 -0.118164 22 4.36784 22 9.88184C22 15.2628 12.76 24.161 12.367 24.585L12 24.981ZM12 0.881836C7.038 0.881836 3 4.91984 3 9.88184C3 14.3018 10.267 21.561 12 23.5C13.732 21.562 21 14.3008 21 9.88184C21 4.91984 16.962 0.881836 12 0.881836Z" fill="#D71920"/>
<path d="M12 15.3818C8.967 15.3818 6.5 12.9148 6.5 9.88184C6.5 6.84884 8.967 4.38184 12 4.38184C15.033 4.38184 17.5 6.84884 17.5 9.88184C17.5 12.9148 15.033 15.3818 12 15.3818ZM12 5.38184C9.519 5.38184 7.5 7.40084 7.5 9.88184C7.5 12.3628 9.519 14.3818 12 14.3818C14.481 14.3818 16.5 12.3628 16.5 9.88184C16.5 7.40084 14.481 5.38184 12 5.38184Z" fill="#D71920"/>
</g>
<defs>
<clipPath id="clip0_6040_5423">
<rect width="25" height="25" fill="white"/>
</clipPath>
</defs>
</svg>
