<svg width="25" height="25" viewBox="0 0 25 25" fill="none" xmlns="http://www.w3.org/2000/svg">
<g clip-path="url(#clip0_6040_5437)">
<path d="M24.975 12C24.711 5.33 19.235 0 12.5 0C5.596 0 0 5.596 0 12.5C0 19.404 5.596 25 12.5 25C19.235 25 24.71 19.67 24.975 13H25V12H24.975ZM22.638 17.92L20.237 16.534L19.737 17.399L22.124 18.777C21.268 20.085 20.157 21.209 18.856 22.075L17.496 19.719L16.63 20.219L18.002 22.595C16.505 23.414 14.805 23.896 13.001 23.974V20.999H12.001V23.974C10.35 23.903 8.79 23.485 7.389 22.786L8.809 20.328L7.943 19.828L6.515 22.3C3.349 20.359 1.197 16.936 1.026 12.999H4.001V11.999H1.026C1.196 8.062 3.349 4.64 6.515 2.698L8.13 5.496L8.996 4.996L7.389 2.213C8.79 1.514 10.349 1.096 12.001 1.025V4H13.001V1.025C14.805 1.103 16.506 1.586 18.002 2.404L16.443 5.105L17.309 5.605L18.857 2.924C20.261 3.859 21.44 5.099 22.319 6.543L19.924 7.925L20.424 8.79L22.801 7.418C23.491 8.811 23.904 10.36 23.975 11.999H21V12.999H23.975C23.898 14.771 23.431 16.442 22.638 17.919V17.92Z" fill="#D71920"/>
<path d="M13 6H12V13.667L15.1 17.8L15.9 17.2L13 13.333V6Z" fill="#D71920"/>
<path d="M2.9152 6.53425L2.41571 7.39941L5.01381 8.89937L5.5133 8.0342L2.9152 6.53425Z" fill="#D71920"/>
<path d="M5.20111 16.4252L2.60364 17.9263L3.10349 18.7912L5.70096 17.2902L5.20111 16.4252Z" fill="#D71920"/>
</g>
<defs>
<clipPath id="clip0_6040_5437">
<rect width="25" height="25" fill="white"/>
</clipPath>
</defs>
</svg>
