<svg width="25" height="25" viewBox="0 0 25 25" fill="none" xmlns="http://www.w3.org/2000/svg">
<g clip-path="url(#clip0_6040_5428)">
<path d="M3 6C1.346 6 0 4.654 0 3C0 1.346 1.346 0 3 0C4.654 0 6 1.346 6 3C6 4.654 4.654 6 3 6ZM3 1C1.897 1 1 1.897 1 3C1 4.103 1.897 5 3 5C4.103 5 5 4.103 5 3C5 1.897 4.103 1 3 1Z" fill="#D71920"/>
<path d="M3 15C1.346 15 0 13.654 0 12C0 10.346 1.346 9 3 9C4.654 9 6 10.346 6 12C6 13.654 4.654 15 3 15ZM3 10C1.897 10 1 10.897 1 12C1 13.103 1.897 14 3 14C4.103 14 5 13.103 5 12C5 10.897 4.103 10 3 10Z" fill="#D71920"/>
<path d="M3 24C1.346 24 0 22.654 0 21C0 19.346 1.346 18 3 18C4.654 18 6 19.346 6 21C6 22.654 4.654 24 3 24ZM3 19C1.897 19 1 19.897 1 21C1 22.103 1.897 23 3 23C4.103 23 5 22.103 5 21C5 19.897 4.103 19 3 19Z" fill="#D71920"/>
<path d="M23.5 3H8.5C8.224 3 8 2.776 8 2.5C8 2.224 8.224 2 8.5 2H23.5C23.776 2 24 2.224 24 2.5C24 2.776 23.776 3 23.5 3Z" fill="#D71920"/>
<path d="M23.5 12H8.5C8.224 12 8 11.776 8 11.5C8 11.224 8.224 11 8.5 11H23.5C23.776 11 24 11.224 24 11.5C24 11.776 23.776 12 23.5 12Z" fill="#D71920"/>
<path d="M23.5 21H8.5C8.224 21 8 20.776 8 20.5C8 20.224 8.224 20 8.5 20H23.5C23.776 20 24 20.224 24 20.5C24 20.776 23.776 21 23.5 21Z" fill="#D71920"/>
</g>
<defs>
<clipPath id="clip0_6040_5428">
<rect width="25" height="25" fill="white"/>
</clipPath>
</defs>
</svg>
