<?xml version="1.0" encoding="utf-8"?>
<!-- Generator: Adobe Illustrator 16.0.0, SVG Export Plug-In . SVG Version: 6.00 Build 0)  -->
<!DOCTYPE svg PUBLIC "-//W3C//DTD SVG 1.1//EN" "http://www.w3.org/Graphics/SVG/1.1/DTD/svg11.dtd">
<svg version="1.1" id="Layer_1" xmlns="http://www.w3.org/2000/svg" xmlns:xlink="http://www.w3.org/1999/xlink" x="0px" y="0px"
	 width="126.695px" height="177px" viewBox="0 0 126.695 177" enable-background="new 0 0 126.695 177" xml:space="preserve">
<rect fill="#D11317" width="126.695" height="177"/>
<g>
	<defs>
		<rect id="SVGID_1_" width="126.695" height="177"/>
	</defs>
	<clipPath id="SVGID_2_">
		<use xlink:href="#SVGID_1_"  overflow="visible"/>
	</clipPath>
	<path clip-path="url(#SVGID_2_)" fill="#FFFFFF" d="M66.503,65.554c0.354-0.334,4.054-3.594,4.434-4.041
		c0.502-0.573,1.698-2.023,1.698-4.302c0-0.534,0.01-11.5,0.01-11.984c0-1.792,0.834-2.797,1.27-3.277
		c0.447-0.491,1.84-1.703,2.21-2.026l-1.171-0.011c-0.331,0.31-4.358,3.951-4.764,4.33c-0.579,0.55-1.384,1.992-1.384,4.012v12.48
		c0,1.032-0.381,2.022-0.994,2.583c-0.324,0.293-2.36,2.136-2.485,2.235H66.503z M77.153,73.417c-0.202-0.2-1.527-1.444-1.527-1.444
		v4.975c0,0,1.451,1.498,1.744,1.803c1.343,1.427,1.329,4.027-2.917,8.176c-0.759,0.722-2.876,2.728-5.804,2.728h-7.605l4.525,3.961
		h3.027c3.077,0,5.9-1.321,7.76-3.189c1.856-1.858,2.547-4.349,2.547-6.696v-6.483C78.903,75.067,77.54,73.802,77.153,73.417
		 M83.448,63.009c-1.432,0-4.577,3.014-4.577,3.014l-1.216-1.32v2.436c0,0-1.438,1.352-2.521,1.352h-2.49v-2.46
		c0-1.148,0.481-2.457,0.988-2.988c0.41-0.441,2.291-2.118,2.455-2.271l-1.149,0.013c-0.434,0.337-4.294,3.865-4.779,4.414
		c-0.867,0.97-1.354,2.806-1.371,3.292c0,0-17.541,0.013-17.985,0.013c-2.189,0-3.707-2.187-3.707-4.098
		c0-0.227,0.065-4.61,0.065-4.61c0-3.758-0.982-4.154-1.153-4.228h-1.567c1.032,0.529,1.682,2.223,1.682,3.233
		c0,0.761-0.018,5.661,0,6.146c0.038,1.636,1.212,7.778,6.737,7.778h15.898c0,0,0.047,9.749,0.047,10.163
		c0,1.637-0.546,2.626-1.006,3.105c-0.41,0.422-2.562,2.3-2.562,2.3h1.187c0.602-0.526,3.936-3.557,4.351-3.937
		c0.933-0.858,1.869-1.972,1.869-5.08v-6.472c0,0,1.412-1.499,1.835-1.846c0.417-0.348,3.165-2.955,3.165-2.955
		c0,3.68,2.56,4.362,4.049,2.939c0.584-0.554,2.429-2.236,2.872-2.68C85.851,66.978,86.626,63.009,83.448,63.009 M81.274,68.557
		c-0.52-0.401-1.817-1.889-1.817-1.889c1.852-1.192,2.919-0.491,3.176-0.066C83.732,68.367,82.985,69.903,81.274,68.557
		 M60.244,78.314c0-1.263-0.828-1.702-2.862-3.736l-3.036,3.042c2.061,2.062,2.769,3.099,2.97,4.038
		C57.482,81.494,60.244,79.184,60.244,78.314 M51.996,65.893h8.431c0.521,0,1.211-0.099,1.875-0.689
		c0.342-0.308,2.605-2.59,2.819-2.833c0.455-0.495,0.613-0.987,0.613-1.628v-3.2c0-3.121-2.448-5.549-2.448-5.549
		s0.495-0.375,0.521-1.696c0.02-0.361,0-3.3,0-3.3s1.021,0.962,1.07,1.36c0,0,1.751-1.79,1.77-1.799
		c0.735-0.837-0.528-2.442-1.133-3.052c-1.771-1.77-1.751-3.612-1.751-3.612s-2.055,2.029-2.071,2.055
		c-0.802,0.88-0.583,2.567,1.115,4.264c0,0,0,3.091,0,4.248c0,0.382-0.355,0.778-0.355,0.778s-2.442-2.208-4.691-2.208h-3.368
		c-2.169,0-3.872,1.917-4.043,2.102c-1.121,1.115-1.15,3.238-0.217,4.18c0.455,0.45,2.331,2.322,2.331,2.322s-0.584-3.823,0-6.375
		c0.184-0.819,1.489-1.592,2.567-0.875c1.888,1.267,4.54,3.795,4.54,3.795s-6.143,6.444-6.381,6.687
		c-0.239,0.238-1.11,0.888-1.941,0.898c-1.059,0.019-1.503-0.569-1.934-1.07c0,0-0.016,2.87-0.016,3.129
		C49.298,64.858,50.664,65.893,51.996,65.893 M54.938,60.45c0.171-0.179,5.406-5.571,5.406-5.571s2.992,3.077,3.938,4.729
		c0.459,0.806,0.977,2.399-1.595,2.399h-9.507C53.959,61.54,54.108,61.322,54.938,60.45 M63.742,85.953
		c0.859-0.966,1.776-1.744,1.776-4.288v-2.481c0-2.148-1.237-3.04-1.84-3.633c-0.391-0.384-1.441-1.399-1.441-1.399v5.083
		c0,0,1.038,1.106,1.505,1.468c2.138,1.695,0.435,4.648-1.562,4.648c-0.393,0-8.505,0.004-9.064,0.004
		c-3.487,0-7.849-2.896-7.849-7.907v-4.119c0-4.231-1.161-4.231-1.161-4.231h-1.565c0,0,1.686,0.919,1.686,3.292v7.582
		c0,4.929,4.062,9.492,9.008,9.492h4.127c2.481,0,3.348-0.603,4.851-1.928C62.756,87.044,63.467,86.241,63.742,85.953
		 M54.045,78.327c0-1.268-0.837-1.701-2.867-3.739l-3.042,3.039c2.07,2.073,2.774,3.102,2.969,4.038
		C51.269,81.502,54.045,79.2,54.045,78.327"/>
	<path clip-path="url(#SVGID_2_)" fill="#FFFFFF" d="M49.768,110.981v-8.667c0-3.44-2.581-4.575-4.683-4.575
		c-2.764,0-3.762,1.964-4.188,3.115c-0.623-2.153-2.795-3.138-4.582-3.138c-3.321,0-4.179,3.189-4.179,3.189
		s-0.083-3.075-2.787-3.075l-2.639,0.008c0,0,1.521,0.628,1.521,3.282v9.86c0,3.295,1.314,3.304,1.314,3.304h4.379
		c-0.118-0.009-1.686-1.203-1.686-3.327v-8.741c0,0,0.388-1.698,2.541-1.698c1.346,0,2.254,1.093,2.239,2.338l-0.005,8.12
		c0,3.306,1.305,3.309,1.305,3.309h4.384c0,0-1.685-1.159-1.685-3.339l-0.008-8.744c0,0,0.49-1.659,2.394-1.659
		c1.299,0,2.384,1.094,2.356,2.343c0,0-0.01,7.416-0.01,8.104c0.028,3.32,1.309,3.293,1.309,3.293c2.287,0,4.393,0.003,4.393,0.003
		S49.768,113.141,49.768,110.981 M57.366,110.989l0.017-9.478c0-3.681-1.944-3.681-2.878-3.681h-2.607c0,0,1.513,0.668,1.513,3.268
		l-0.002,9.906c0,3.173,1.292,3.277,1.292,3.277c2.293,0,4.381,0.003,4.381,0.003S57.366,113.22,57.366,110.989 M66.283,101.189
		c1.431-0.908,3.4-0.681,4.528,0.667v-2.782c0,0-0.423-1.189-2.241-1.189c-2.737,0-3.405,3.244-3.405,3.244
		c-0.233-2.558-0.914-3.321-2.818-3.321l-2.646,0.003c0,0,1.546,0.633,1.546,3.288l-0.021,9.876c0,3.222,1.325,3.308,1.325,3.308
		h4.323c0,0-1.665-1.055-1.665-3.341l0.004-8.069C65.213,102.872,65.346,101.791,66.283,101.189 M91.069,99.668
		c1.562,0,2.588,0.656,2.588,0.656v-2.498h-3.644v-3.774c0,0-0.877,1.569-2.828,3.207c-1.335,1.115-3.925,2.409-3.925,2.409h2.768
		l-0.012,11.445c0,2.966,1.334,3.169,1.334,3.169c2.391,0,4.329,0.003,4.329,0.003s-1.669-1.121-1.669-3.202l0.003-11.415
		C90.014,99.668,90.934,99.668,91.069,99.668 M104.312,104.65c3.228-3.374,0.816-6.934-3.612-6.911
		c-4.481,0.022-6.888,4.18-6.888,8.664c0,4.555,2.951,7.906,7.196,7.906c3.275,0,4.686-1.194,4.686-1.194l0.007-2.894
		c-1.75,3.044-4.442,2.18-5.111,1.875c-1.901-0.894-2.14-3.429-2.14-3.429C99.938,106.796,101.866,107.192,104.312,104.65
		 M98.158,106.873c0,0-0.544-7.595,2.298-7.807c2.468-0.189,1.903,3.189,1.176,4.53C100.524,105.624,99.098,105.831,98.158,106.873
		 M55.357,96.488c1.132,0,2.049-0.867,2.049-1.975c0-1.104-0.917-1.996-2.049-1.996c-1.121,0-1.987,0.893-1.987,1.996
		C53.371,95.621,54.237,96.488,55.357,96.488 M116.525,106.022c-1.018-1.329-2.843-2.319-4.306-3.161
		c-1.961-1.142-1.7-3.594,1.196-3.36c2.168,0.173,3.077,2.261,3.077,2.261v-2.739c0,0-1.666-1.319-4.193-1.319
		c-2.619,0-4.876,1.719-4.876,3.938c0,1.947,0.847,3.218,2.451,4.379c0.632,0.468,1.386,0.929,2.266,1.417
		c1.277,0.704,1.751,1.569,1.771,2.381c0.032,1.165-1.009,2.704-3.217,2.704c-2.182,0-3.135-2.333-3.135-2.333l-0.021,2.949
		c0,0,1.606,1.162,4.137,1.162c2.994,0,5.858-2.115,5.858-5.395C117.534,107.786,117.114,106.84,116.525,106.022 M81.823,111.043
		v-9.07c0-2.871-2.455-4.18-5.064-4.18c-2.504,0-4.088,1.215-4.088,1.215v2.863c0,0,1.03-2.27,3.16-2.27
		c1.875,0,2.44,0.917,2.44,1.851c0,1.612-1.375,2.332-2.262,2.723c-2.602,1.137-5.924,2.389-5.924,6.165
		c0,2.533,1.822,3.978,4.4,3.978c2.171,0,3.314-1.659,3.456-1.983c0.216,1.745,1.225,1.948,1.225,1.948
		c2.271,0,4.355,0.019,4.355,0.019S81.823,113.372,81.823,111.043 M77.867,111.477c-0.006-0.022-0.608,0.944-1.963,0.944
		c-1.365,0-2.307-0.738-2.307-2.292c0-3.713,3.375-4.473,4.271-5.583L77.867,111.477z M22.282,112.059h-4.854
		c-1.271,0-1.535-0.903-1.535-2.288v-7.07c0,0,3.664,0.012,3.683,0.012c2.19,0,3.226,0.716,3.226,0.716s-0.937-2.815-4.687-2.815
		h-2.222v-2.241c0-1.915-0.482-2.515-0.482-2.515h4.246c4.594,0,6.127,1.441,6.127,1.441s-0.43-3.666-5.828-3.666H9.474
		c0,0,1.771,1.412,1.771,4.728l-0.024,12.604c0,3.215,1.375,3.347,1.375,3.347h10.329c1.586,0,3.209-0.884,3.209-2.563l-0.002-1.222
		C26.131,110.524,25.373,112.059,22.282,112.059"/>
	<rect x="10.113" y="119.688" clip-path="url(#SVGID_2_)" fill="#FFFFFF" width="106.786" height="1.062"/>
	<path clip-path="url(#SVGID_2_)" fill="#FFFFFF" d="M34.93,145.794c0.512,0,1.59,0.03,2.411,2.115l3.032,7.763
		c0,0,0.495,1.238,1.645,1.881h-2.977c-0.732,0-1.463-1.865-1.463-1.865l-0.946-2.408h-4.004l-0.949,2.374h0.018
		c0,0-0.547,1.387,0.164,1.899h-1.936c-0.73,0,0-1.881,0-1.881l3.161-8.023c0,0,0.583-1.479-0.09-1.841L34.93,145.794z
		 M34.639,148.146l-1.534,3.929h3.05L34.639,148.146z"/>
	<path clip-path="url(#SVGID_2_)" fill="#FFFFFF" d="M46.201,148.891c-1.388,0-2.15,2.021-2.15,4.044
		c0,2.518,1.153,3.771,2.36,3.771c0.495,0,1.324-0.235,1.861-0.964v1.557c0,0-0.815,0.456-2.653,0.456
		c-2.503,0-4.052-1.974-4.052-4.661c0-2.631,1.695-5.096,4.509-5.096c1.355,0,2.214,0.476,2.214,0.476v1.645
		C48.291,150.118,47.579,148.891,46.201,148.891"/>
	<path clip-path="url(#SVGID_2_)" fill="#FFFFFF" d="M54.588,157.553c-0.529-0.073-0.692-1.116-0.692-1.116
		c-0.275,0.549-1.041,1.277-2.159,1.277c-1.15,0-2.064-0.38-2.338-1.749c-0.355-1.831,0.728-2.837,1.955-3.453
		c1.357-0.685,2.685-1.139,2.685-2.466c0-0.613-0.382-0.987-1.289-0.987c-1.187,0-1.85,1.457-1.85,1.457v-1.676
		c0,0,0.765-0.857,2.319-0.857c1.625,0,2.885,0.862,2.885,2.445v5.241v0.017c0,0,0,1.225,0.95,1.867H54.588z M53.855,152.035
		c-0.511,0.622-2.52,1.095-2.52,3.415c0,0.603,0.401,1.188,0.968,1.188c1.006,0,1.333-0.476,1.552-0.674V152.035z"/>
	<path clip-path="url(#SVGID_2_)" fill="#FFFFFF" d="M61.677,157.704c-2.354,0-3.998-2.286-3.998-4.565
		c0-3.09,1.736-5.174,3.925-5.174c0,0,1.059,0,1.555,0.712v-1.023c0,0,0-1.479-0.861-1.844h1.501c0.531,0,1.625-0.016,1.625,2.084
		v7.93h0.017C64.42,157.704,61.677,157.704,61.677,157.704 M63.159,150.249c-0.496-1.407-1.588-1.407-1.588-1.407
		c-1.408,0-1.426,2.505-1.426,4.297c0,0.987,0.091,3.432,2.174,3.432c0,0,0.454,0,0.84-0.424V150.249z"/>
	<path clip-path="url(#SVGID_2_)" fill="#FFFFFF" d="M73.973,156.985c-0.658,0.77-2.722,0.77-2.722,0.77
		c-2.505,0-4.223-1.974-4.223-4.642c0-2.611,1.392-5.059,4.04-5.059c2.575-0.024,3.98,2.063,2.102,4.035
		c-1.423,1.481-2.56,1.262-3.455,2.359c0.143,1.478,1.279,1.985,1.279,1.985c0.563,0.255,1.973,0.755,2.979-1.004V156.985z
		 M70.921,148.891c0,0-1.681,0.132-1.352,4.496c0.548-0.604,1.39-0.729,2.031-1.914C72.034,150.684,72.363,148.781,70.921,148.891"
		/>
	<path clip-path="url(#SVGID_2_)" fill="#FFFFFF" d="M86.302,157.553c-0.712,0-0.732-1.881-0.732-1.881s-0.02-0.387,0-4.587
		c0-0.71-0.602-1.478-1.352-1.478c-0.929,0-1.261,0.805-1.351,1.094v4.955c0,0,0,1.238,0.946,1.896h-2.465
		c-0.747,0-0.747-1.881-0.747-1.881l0.018-4.77c0-0.711-0.658-1.333-1.262-1.333c-1.06,0-1.343,1.03-1.457,1.29v4.797
		c0,1.201,0.872,1.858,0.946,1.896h-2.466c-0.75,0-0.75-1.881-0.75-1.881v-5.589c0,0,0-1.521-0.911-1.887h1.498
		c0,0,1.625-0.028,1.625,1.755c0.627-1.874,1.922-1.969,2.539-1.969c1.002,0,2.062,0.726,2.429,1.951
		c0.199-0.457,0.859-1.951,2.435-1.951c1.182,0,2.591,0.689,2.591,2.648v5.041c0,0,0,1.223,0.947,1.881H86.302z"/>
	<path clip-path="url(#SVGID_2_)" fill="#FFFFFF" d="M96.293,158.445c0,0-0.309,1.479-1.313,1.954h-2.541
		c1.332-0.729,1.755-2.461,1.755-2.461s0.073-0.313,0.091-0.438c-0.274,0.269-0.911,0.269-0.911,0.269
		c-1.186,0-2.337-0.399-2.776-2.465c-1.082-5.242-1.097-5.258-1.097-5.258s-0.309-1.374-1.058-1.853h1.826
		c0.474,0,1.111,0.429,1.439,1.853c0,0,0.056,0.399,1.116,4.824c0.184,0.783,0.476,2.148,1.296,2.148c0,0,0.146,0,0.329-0.198
		c1.353-6.722,1.353-6.759,1.353-6.759s0.292-1.533-0.259-1.868h1.59c0.477,0,1.171,0.479,0.933,1.89
		C98.011,150.463,96.658,156.8,96.293,158.445"/>
	<path clip-path="url(#SVGID_2_)" fill="#FFFFFF" d="M19.695,129.73c-0.564-0.378-1.194-0.624-1.886-0.717
		c-0.434-0.077-1.15-0.113-2.168-0.113h-0.253h-1.55c0.197,0.261,0.304,0.747,0.304,1.438v0.766c0.008,0.151,0.008,0.324,0,0.506
		h1.367c0.596,0,1.152,0.184,1.655,0.545c0.404,0.31,0.701,0.669,0.87,1.06c-0.324-0.288-0.914-0.436-1.782-0.46h-2.11v4.885
		c0,0.254,0.025,0.479,0.107,0.679c0.147,0.499,0.436,0.847,0.832,1.063h-2.618c-0.464-0.039-0.717-0.661-0.755-1.863v-7.2
		c-0.018-0.357-0.063-0.696-0.139-1.014c-0.166-0.749-0.462-1.314-0.888-1.689H16.4c0.607,0.037,1.121,0.133,1.55,0.282
		C19.021,128.237,19.601,128.854,19.695,129.73"/>
	<path clip-path="url(#SVGID_2_)" fill="#FFFFFF" d="M47.431,139.382H44.94c-0.452,0-0.702-0.64-0.74-1.896
		c-0.008-0.51-0.008-2.098,0-4.783c0-0.359-0.128-0.672-0.401-0.935c-0.27-0.258-0.594-0.394-0.966-0.394
		c-0.187,0.021-0.35,0.061-0.503,0.114c-0.373,0.154-0.652,0.4-0.839,0.758v5.239c0.016,0.249,0.064,0.481,0.14,0.706
		c0.154,0.524,0.427,0.916,0.82,1.19h-2.483c-0.466,0-0.725-0.63-0.763-1.859v-0.032v-7.992c-0.013-0.279-0.048-0.541-0.11-0.789
		c-0.136-0.554-0.383-0.919-0.725-1.097h1.489c1.086,0,1.632,0.713,1.632,2.14v1.687c0.471-1.087,1.266-1.636,2.388-1.636
		c0.714,0,1.292,0.174,1.743,0.514c0.565,0.406,0.846,1.07,0.846,1.967v5.202c0.019,0.251,0.057,0.481,0.116,0.706
		C46.749,138.7,47.032,139.09,47.431,139.382"/>
	<path clip-path="url(#SVGID_2_)" fill="#FFFFFF" d="M21.453,139.373c-0.768,0-0.768-1.858-0.768-1.858v-0.009v-8
		c0,0,0-1.483-0.854-1.839h1.492c0.532,0,1.621-0.021,1.621,2.074v7.765h0.018c0,0,0,1.229,0.95,1.867H21.453z"/>
	<path clip-path="url(#SVGID_2_)" fill="#FFFFFF" d="M49.711,139.364c-0.743,0-0.743-1.803-0.743-1.803v-6.478l-1.583-0.021
		c1.489-0.707,2.188-1.295,2.188-1.295s1.105-0.909,1.649-1.863v2.072h2.084l-0.016,1.462c-0.622-0.334-1.464-0.334-1.464-0.334
		c-0.404,0,0.059-0.021-0.605-0.021v6.467c0,0,0,1.196,0.939,1.813H49.711z"/>
	<path clip-path="url(#SVGID_2_)" fill="#FFFFFF" d="M26.244,129.298c-0.64,0-1.148-0.505-1.148-1.124
		c0-0.621,0.508-1.112,1.148-1.112c0.636,0,1.147,0.491,1.147,1.112C27.391,128.793,26.88,129.298,26.244,129.298 M25.879,139.373
		c-0.768,0-0.768-1.858-0.768-1.858v-0.009v-5.648c0,0,0-1.471-0.858-1.847h1.496c0.526,0,1.621-0.019,1.621,2.076v5.419h0.021
		c0,0,0,1.229,0.946,1.867H25.879z"/>
	<path clip-path="url(#SVGID_2_)" fill="#FFFFFF" d="M35.404,130.019h1.999c-0.482,0.401-0.482,1.498-0.482,1.498v5.961
		c0,1.431,0.161,3.651-1.5,4.691h-2.522c1.452-0.973,1.837-2.344,1.837-3.5c0,0.088-0.26,0.888-1.521,0.888
		c-2.37,0-3.993-1.952-3.993-4.6c0-3.1,1.714-5.123,3.913-5.123c0,0,1.143,0,1.668,0.937
		C34.912,130.019,35.404,130.019,35.404,130.019 M33.837,138.522c0,0,0.638,0,0.863-0.513v-5.808
		c-0.503-1.498-1.59-1.498-1.59-1.498c-1.416,0-1.541,2.555-1.541,4.352C31.569,136.935,32.265,138.522,33.837,138.522"/>
	<path clip-path="url(#SVGID_2_)" fill="#FFFFFF" d="M81.259,129.298c-0.64,0-1.148-0.508-1.148-1.124
		c0-0.627,0.509-1.112,1.148-1.112c0.637,0,1.147,0.485,1.147,1.112C82.406,128.79,81.896,129.298,81.259,129.298 M80.899,139.371
		c-0.769,0-0.769-1.856-0.769-1.856v-0.005v-5.652c0,0,0-1.474-0.862-1.85h1.494c0.528,0,1.622-0.016,1.622,2.079v5.423h0.021
		c0,0,0,1.221,0.947,1.861H80.899z"/>
	<path clip-path="url(#SVGID_2_)" fill="#FFFFFF" d="M113.38,130.002h1.996c-0.481,0.402-0.481,1.499-0.481,1.499v5.961
		c0,1.426,0.162,3.65-1.502,4.69h-2.518c1.451-0.971,1.835-2.34,1.835-3.499c0,0.089-0.265,0.888-1.521,0.888
		c-2.369,0-3.996-1.954-3.996-4.598c0-3.103,1.716-5.123,3.921-5.123c0,0,1.139,0,1.666,0.929
		C112.884,130.002,113.38,130.002,113.38,130.002 M111.812,138.506c0,0,0.633,0,0.862-0.511v-5.81
		c-0.496-1.494-1.596-1.494-1.596-1.494c-1.414,0-1.538,2.55-1.538,4.35C109.541,136.919,110.235,138.506,111.812,138.506"/>
	<path clip-path="url(#SVGID_2_)" fill="#FFFFFF" d="M91.827,132.702v4.76c0,0,0,1.24,0.95,1.902h-2.469
		c-0.748,0-0.748-1.881-0.748-1.881l0.015-4.77c0-0.713-0.652-1.332-1.259-1.332c-1.061,0-1.346,1.029-1.463,1.287v4.793
		c0,1.207,0.877,1.864,0.951,1.902h-2.466c-0.747,0-0.747-1.881-0.747-1.881v-5.592c0,0-0.034-1.487-0.945-1.89h1.5
		c0,0,1.652-0.021,1.652,1.761c0.629-1.876,1.924-1.917,2.541-1.917C91.334,129.846,91.827,131.58,91.827,132.702"/>
	<path clip-path="url(#SVGID_2_)" fill="#FFFFFF" d="M69.188,131.857c0.822-0.522,1.951-0.393,2.599,0.375v-1.588
		c0,0-0.243-0.684-1.282-0.684c-1.567,0-1.953,1.859-1.953,1.859c-0.137-1.465-0.528-1.812-1.616-1.812h-1.519
		c0,0,0.883,0.363,0.883,1.886l-0.01,5.568c0,1.852,0.761,1.902,0.761,1.902h2.497c0,0-0.955-0.607-0.955-1.919l-0.013-4.628
		C68.579,132.817,68.649,132.202,69.188,131.857"/>
	<path clip-path="url(#SVGID_2_)" fill="#FFFFFF" d="M60.471,139.364c-0.74,0-0.99-0.693-0.99-1.765l0.009-7.32
		c0-0.517-0.075-0.959-0.188-1.327h-0.054c-1.733,0-3.116-0.444-3.389-1.66c0.846,0.298,2.281,0.298,2.281,0.298H62.4
		c1.586,0,2.877,0.349,3.262,1.637c-0.812-0.311-2.303-0.311-2.303-0.311h-1.457c0,0,0.256,0.386,0.256,1.378v7.319
		c0,1.293,0.938,1.751,0.938,1.751H60.471z"/>
	<path clip-path="url(#SVGID_2_)" fill="#FFFFFF" d="M77.965,137.498v-5.182c0-1.643-1.407-2.393-2.903-2.393
		c-1.438,0-2.343,0.694-2.343,0.694v1.646c0,0,0.585-1.305,1.812-1.305c1.076,0,1.396,0.526,1.396,1.06
		c0,0.925-0.784,1.341-1.296,1.562c-1.489,0.656-3.396,1.369-3.396,3.537c0,1.453,1.045,2.278,2.521,2.278
		c1.245,0,1.902-0.946,1.982-1.135c0.126,1.001,0.701,1.1,0.701,1.1c1.305,0,2.502,0.011,2.502,0.011S77.965,138.839,77.965,137.498
		 M75.697,137.765c-0.007-0.01-0.351,0.544-1.13,0.544c-0.782,0-1.322-0.423-1.322-1.312c0-2.131,1.938-2.564,2.456-3.198
		L75.697,137.765z"/>
	<path clip-path="url(#SVGID_2_)" fill="#FFFFFF" d="M95.096,129.298c-0.642,0-1.146-0.508-1.146-1.124
		c0-0.627,0.504-1.112,1.146-1.112c0.639,0,1.15,0.485,1.15,1.112C96.246,128.79,95.734,129.298,95.096,129.298 M94.733,139.371
		c-0.765,0-0.765-1.856-0.765-1.856v-0.005v-5.652c0,0,0-1.474-0.862-1.85h1.497c0.524,0,1.621-0.016,1.621,2.079v5.423h0.021
		c0,0,0,1.221,0.948,1.861H94.733z"/>
	<path clip-path="url(#SVGID_2_)" fill="#FFFFFF" d="M105.664,132.702v4.76c0,0,0,1.24,0.951,1.902h-2.471
		c-0.745,0-0.745-1.881-0.745-1.881l0.019-4.77c0-0.713-0.658-1.332-1.262-1.332c-1.059,0-1.35,1.029-1.459,1.287v4.793
		c0,1.207,0.872,1.864,0.944,1.902h-2.463c-0.749,0-0.749-1.881-0.749-1.881v-5.592c0,0-0.028-1.487-0.943-1.89h1.502
		c0,0,1.648-0.021,1.648,1.761c0.631-1.876,1.93-1.917,2.541-1.917C105.168,129.846,105.664,131.58,105.664,132.702"/>
</g>
<g>
</g>
<g>
</g>
<g>
</g>
<g>
</g>
<g>
</g>
<g>
</g>
</svg>
