<?xml version="1.0" encoding="utf-8"?>
<!-- Generator: Adobe Illustrator 25.4.1, SVG Export Plug-In . SVG Version: 6.00 Build 0)  -->
<svg version="1.1" id="Layer_1" xmlns="http://www.w3.org/2000/svg" xmlns:xlink="http://www.w3.org/1999/xlink" x="0px" y="0px"
	 viewBox="0 0 80 80" style="enable-background:new 0 0 80 80;" xml:space="preserve">
<g>
	<path d="M4.82,58.23h15.03v-2.87H6.25V42.2c0-2.74,2.23-4.97,4.97-4.97H21.6c0.65-1.07,1.47-2.04,2.41-2.86
		c-0.1,0-0.21-0.01-0.32-0.01H11.22c-4.32,0-7.84,3.52-7.84,7.84v14.59C3.39,57.58,4.03,58.23,4.82,58.23z"/>
	<path d="M76.61,42.2c0-4.32-3.52-7.84-7.84-7.84H56.31c-0.11,0-0.21,0-0.32,0.01c0.94,0.82,1.76,1.79,2.41,2.86h10.37
		c2.74,0,4.97,2.23,4.97,4.97v4.59c1.13,1.06,2.1,2.29,2.87,3.64V42.2z"/>
	<path d="M27.06,35.12c-0.98,0.57-1.85,1.31-2.57,2.18c-1.4,1.68-2.24,3.84-2.24,6.19v11.86v2.87v0.43v2.19
		c0,0.79,0.64,1.43,1.43,1.43h24.89c-0.27-0.92-0.46-1.88-0.55-2.87h-22.9v-0.75v-0.43v-2.87V43.49c0-1.9,0.78-3.62,2.03-4.86
		c0.69-0.69,1.53-1.22,2.46-1.57c0.15-0.05,0.29-0.1,0.44-0.14c0.6-0.17,1.24-0.27,1.9-0.27h16.09c0.66,0,1.29,0.1,1.9,0.27
		c0.15,0.04,0.3,0.09,0.44,0.14c0.93,0.34,1.77,0.88,2.46,1.57c1.25,1.24,2.03,2.96,2.03,4.86v1.66c0.9-0.59,1.86-1.09,2.87-1.48
		v-0.18c0-2.35-0.84-4.51-2.24-6.19c-0.72-0.87-1.59-1.6-2.57-2.18c-0.15-0.09-0.3-0.17-0.46-0.25c-1.33-0.69-2.84-1.08-4.44-1.08
		H31.95c-1.6,0-3.11,0.39-4.44,1.08C27.36,34.95,27.21,35.04,27.06,35.12z"/>
	<path d="M51.69,20.79C51.69,14.34,46.44,9.1,40,9.1s-11.69,5.24-11.69,11.69S33.56,32.47,40,32.47S51.69,27.23,51.69,20.79z
		 M31.18,20.79c0-4.86,3.96-8.82,8.82-8.82c4.86,0,8.82,3.96,8.82,8.82S44.86,29.6,40,29.6C35.14,29.6,31.18,25.65,31.18,20.79z"/>
	<path d="M76.19,58.66c0.01-0.23,0.02-0.46,0.02-0.69c0-0.06,0-0.11,0-0.17c-0.04-2.77-0.94-5.33-2.46-7.42
		c-2.35-3.24-6.17-5.35-10.47-5.35c-1.08,0-2.12,0.13-3.12,0.38c-0.49,0.12-0.97,0.27-1.43,0.45c-0.33,0.12-0.66,0.26-0.97,0.41
		c-1.04,0.49-2,1.12-2.87,1.86c-1.53,1.31-2.75,2.96-3.54,4.84c-0.65,1.54-1,3.22-1,4.99c0,0.09,0,0.18,0.01,0.26
		c0,0.14,0,0.29,0.01,0.43c0.01,0.25,0.04,0.5,0.06,0.75c0.11,0.99,0.34,1.95,0.66,2.87c0.12,0.33,0.25,0.65,0.39,0.97
		c0.22,0.49,0.47,0.97,0.75,1.43c2.27,3.72,6.38,6.22,11.05,6.22C70.18,70.9,75.83,65.47,76.19,58.66z M63.28,68.03
		c-2.97,0-5.65-1.29-7.49-3.35c-0.4-0.44-0.76-0.92-1.07-1.43c-0.19-0.31-0.37-0.64-0.53-0.97c-0.42-0.89-0.72-1.86-0.87-2.87
		c-0.04-0.25-0.06-0.5-0.08-0.75c-0.01-0.14-0.02-0.29-0.02-0.43c0-0.09-0.01-0.18-0.01-0.26c0-0.9,0.12-1.77,0.34-2.6
		c0.28-1.06,0.74-2.06,1.33-2.95c0.75-1.14,1.73-2.11,2.87-2.86c0.31-0.21,0.64-0.39,0.97-0.56c0.46-0.23,0.94-0.43,1.43-0.6
		c0.98-0.32,2.03-0.5,3.12-0.5c4.65,0,8.58,3.17,9.73,7.47c0.22,0.83,0.34,1.7,0.34,2.6c0,0.09,0,0.18-0.01,0.26
		c0,0.14-0.01,0.29-0.02,0.43C72.96,63.89,68.59,68.03,63.28,68.03z"/>
	<path d="M67.94,52.99l-2.37,2.37l-2.87,2.87l-0.43,0.43l-1.64,1.64l-0.48-0.48l-1.16-1.16l-0.27-0.27l-0.16-0.16l-0.81-0.81
		l-0.11-0.11c-0.56-0.56-1.47-0.56-2.03,0c-0.26,0.26-0.39,0.59-0.41,0.92c-0.01,0.14,0,0.29,0.04,0.43
		c0.06,0.25,0.18,0.48,0.38,0.68l2.03,2.03l1.07,1.07l0.9,0.9c0.16,0.16,0.34,0.26,0.54,0.33c0.15,0.05,0.32,0.09,0.48,0.09
		c0.37,0,0.73-0.14,1.01-0.42l4.68-4.68l0.43-0.43l2.87-2.87l0.34-0.34c0.56-0.56,0.56-1.47,0-2.03
		C69.41,52.43,68.5,52.43,67.94,52.99z"/>
	<path d="M17.46,32.55c4.48,0,8.23-3.16,9.15-7.36c0.14-0.65,0.22-1.32,0.22-2.01c0-0.74-0.09-1.46-0.25-2.15
		c-0.14-0.6-0.34-1.18-0.59-1.73c-1.48-3.24-4.75-5.49-8.53-5.49c-4.43,0-8.15,3.09-9.12,7.22c-0.16,0.69-0.25,1.41-0.25,2.15
		C8.08,28.35,12.29,32.55,17.46,32.55z M17.46,29.68c-3.59,0-6.51-2.92-6.51-6.51s2.92-6.51,6.51-6.51c3.59,0,6.51,2.92,6.51,6.51
		S21.05,29.68,17.46,29.68z"/>
	<path d="M62.54,32.55c5.17,0,9.38-4.21,9.38-9.38c0-0.74-0.09-1.46-0.25-2.15c-0.98-4.14-4.69-7.22-9.12-7.22
		c-3.79,0-7.05,2.26-8.53,5.49c-0.25,0.55-0.45,1.13-0.59,1.73c-0.16,0.69-0.25,1.41-0.25,2.15c0,0.69,0.08,1.37,0.22,2.01
		C54.31,29.39,58.06,32.55,62.54,32.55z M62.54,16.67c3.59,0,6.51,2.92,6.51,6.51s-2.92,6.51-6.51,6.51c-3.59,0-6.51-2.92-6.51-6.51
		S58.95,16.67,62.54,16.67z"/>
</g>
</svg>
