<?xml version="1.0" encoding="utf-8"?>
<!-- Generator: Adobe Illustrator 25.4.1, SVG Export Plug-In . SVG Version: 6.00 Build 0)  -->
<svg version="1.1" id="Layer_1" xmlns="http://www.w3.org/2000/svg" xmlns:xlink="http://www.w3.org/1999/xlink" x="0px" y="0px"
	 viewBox="0 0 80 80" style="enable-background:new 0 0 80 80;" xml:space="preserve">
<style type="text/css">
	.st0{fill:none;stroke:#000000;stroke-width:3;stroke-linecap:round;stroke-linejoin:round;stroke-miterlimit:10;}
</style>
<g>
	<path class="st0" d="M65.67,33.75c0.13-1.43,0.19-2.86,0.19-4.3v-5.39c0-1.43-1-2.65-2.4-2.94c-4.98-1.01-8.85-5.09-9.54-10.18
		c-0.15-1.07-0.87-1.98-1.88-2.37c-8.03-3.12-16.06-3.12-24.09,0c-1.01,0.39-1.73,1.3-1.88,2.37c-0.69,5.09-4.56,9.17-9.54,10.18
		c-1.4,0.28-2.4,1.51-2.4,2.94v5.39c0,1.44,0.06,2.88,0.19,4.3"/>
	<path class="st0" d="M19.53,51.74c2.53,4.93,5.91,9.44,10.04,13.3l8.52,7.98c1.07,1,2.73,1,3.8,0l8.52-7.98
		c4.13-3.87,7.51-8.37,10.04-13.3"/>
	<g>
		<g>
			<line class="st0" x1="22.71" y1="42.08" x2="28.41" y2="43.29"/>
			<path class="st0" d="M30.13,33.75H5.6c-1.28,0-2.32,1.04-2.32,2.32l0,0c0,1.1,0.77,2.04,1.84,2.27l8.15,1.73"/>
			
				<ellipse transform="matrix(0.2298 -0.9732 0.9732 0.2298 -28.3072 50.2307)" class="st0" cx="17.58" cy="43" rx="5.21" ry="5.21"/>
			<path class="st0" d="M18.23,43c0,0.36-0.29,0.65-0.65,0.65c-0.36,0-0.65-0.29-0.65-0.65c0-0.36,0.29-0.65,0.65-0.65
				C17.94,42.35,18.23,42.64,18.23,43z"/>
			<line class="st0" x1="33.53" y1="48.21" x2="33.53" y2="51.74"/>
			<path class="st0" d="M34.89,51.74h-2.73c-0.56,0-1.01,0.45-1.01,1.01v3.46c0,0.56,0.45,1.01,1.01,1.01h2.73
				c0.56,0,1.01-0.45,1.01-1.01v-3.46C35.9,52.19,35.45,51.74,34.89,51.74z"/>
		</g>
		<g>
			<line class="st0" x1="57.29" y1="42.08" x2="51.59" y2="43.29"/>
			<path class="st0" d="M49.87,33.75H74.4c1.28,0,2.32,1.04,2.32,2.32l0,0c0,1.1-0.77,2.04-1.84,2.27l-8.15,1.73"/>
			
				<ellipse transform="matrix(0.9732 -0.2298 0.2298 0.9732 -8.2094 15.4912)" class="st0" cx="62.42" cy="43" rx="5.21" ry="5.21"/>
			<path class="st0" d="M61.77,43c0,0.36,0.29,0.65,0.65,0.65c0.36,0,0.65-0.29,0.65-0.65c0-0.36-0.29-0.65-0.65-0.65
				C62.06,42.35,61.77,42.64,61.77,43z"/>
			<line class="st0" x1="46.47" y1="48.21" x2="46.47" y2="51.74"/>
			<path class="st0" d="M45.11,51.74h2.73c0.56,0,1.01,0.45,1.01,1.01v3.46c0,0.56-0.45,1.01-1.01,1.01h-2.73
				c-0.56,0-1.01-0.45-1.01-1.01v-3.46C44.1,52.19,44.55,51.74,45.11,51.74z"/>
			<path class="st0" d="M40,48.8c6.49,0,11.76-0.84,11.76-7.33c0-6.49-5.26-16.18-11.76-16.18c-6.49,0-11.76,9.69-11.76,16.18
				C28.24,47.96,33.51,48.8,40,48.8z"/>
		</g>
		<path class="st0" d="M29.32,35.74c7.12,2.96,14.24,2.96,21.36,0"/>
		<line class="st0" x1="40" y1="30.91" x2="40" y2="37.96"/>
	</g>
</g>
</svg>
