<svg xmlns="http://www.w3.org/2000/svg" width="80" height="80"><g fill="none" fill-rule="evenodd" stroke="#000" stroke-width="2"><path stroke-linejoin="round" d="M36.357 44h32.786V10H10.857v35.214"/><path d="M15.714 45.214V34.286a3.643 3.643 0 0 1 3.643-3.643h27.929a2.428 2.428 0 1 1 0 4.857H33.929c-.67 0-1.215.544-1.215 1.214v8.5"/><path stroke-linecap="round" stroke-linejoin="round" d="M30.286 22.143c0 3.643-2.175 6.071-4.857 6.071-2.683 0-4.858-2.428-4.858-6.071a4.857 4.857 0 0 1 9.715 0ZM44.857 53.714c0 3.643-2.175 6.072-4.857 6.072-2.682 0-4.857-2.429-4.857-6.072a4.857 4.857 0 0 1 9.714 0ZM69.143 53.714c0 3.643-2.175 6.072-4.857 6.072-2.683 0-4.857-2.429-4.857-6.072a4.857 4.857 0 0 1 9.714 0ZM20.571 53.714c0 3.643-2.174 6.072-4.857 6.072-2.682 0-4.857-2.429-4.857-6.072a4.857 4.857 0 0 1 9.714 0Z"/><path d="M25.429 69.5v-3.393c0-.952-.55-1.819-1.419-2.209-1.586-.714-4.44-1.684-8.245-1.684-3.816 0-6.718.977-8.332 1.69A2.417 2.417 0 0 0 6 66.123V69.5M49.714 69.5v-3.393c0-.952-.549-1.819-1.418-2.209-1.586-.714-4.44-1.684-8.245-1.684-3.817 0-6.719.977-8.332 1.69a2.417 2.417 0 0 0-1.433 2.218V69.5M74 69.5v-3.393c0-.952-.549-1.819-1.418-2.209-1.586-.714-4.44-1.684-8.245-1.684-3.817 0-6.719.977-8.333 1.69a2.417 2.417 0 0 0-1.433 2.218V69.5M38.786 20.929h24.285M38.786 25.786h19.428"/></g></svg>