<?xml version="1.0" encoding="utf-8"?>
<!-- Generator: Adobe Illustrator 25.4.1, SVG Export Plug-In . SVG Version: 6.00 Build 0)  -->
<svg version="1.1" id="Layer_1" xmlns="http://www.w3.org/2000/svg" xmlns:xlink="http://www.w3.org/1999/xlink" x="0px" y="0px"
	 viewBox="0 0 80 80" style="enable-background:new 0 0 80 80;" xml:space="preserve">
<g>
	<path d="M18.3,78.46h2.27V1.54H18.3V78.46z M14,78.46h2.27V1.54H14V78.46z M59.44,78.46h2.27V1.54h-2.27V78.46z M63.73,1.54v76.92
		H66V1.54H63.73z M41.13,15.88h-2.27v9.51h2.27V15.88z M41.13,1.59h-2.27v9.51h2.27V1.59z M43.3,47.69c0-1.2-0.44-2.36-1.25-3.25
		l-0.19-0.22c-0.47-0.53-1.15-0.83-1.86-0.83c-0.71,0-1.39,0.3-1.86,0.83l-0.19,0.22c-0.8,0.89-1.25,2.05-1.25,3.25v7.17
		l-13.42,7.93l0.36,2.25l3.88,0.86l9.4-3.12l0.29,9.02l-3.68,3.63l0.75,1.82h11.45l0.75-1.82l-3.68-3.63l0.29-9.02l9.4,3.12
		l3.88-0.86l0.36-2.25L43.3,54.86V47.69z M53.29,63.4l-0.69,0.15l-11.69-3.88l-0.41,13.05l2.29,2.26h-1.65v-0.84h-2.27v0.84h-1.66
		l2.29-2.26l-0.41-13.05L27.4,63.55l-0.69-0.15l12.25-7.25v-8.46c0-0.64,0.24-1.26,0.67-1.73l0.19-0.22c0.09-0.1,0.26-0.1,0.35,0
		l0.19,0.22c0.43,0.48,0.67,1.09,0.67,1.73v8.46L53.29,63.4z M41.13,30.21h-2.27v9.51h2.27V30.21z"/>
</g>
</svg>
