<svg xmlns="http://www.w3.org/2000/svg" xmlns:xlink="http://www.w3.org/1999/xlink" width="80" height="80"><defs><path id="a" d="M0 0h68v29.749H0z"/></defs><g fill="none" fill-rule="evenodd"><path fill="#000" d="M40 72.137a16.868 16.868 0 1 1 16.868-16.866c-.01 9.312-7.556 16.859-16.868 16.87v-.004Zm0-35.594a18.727 18.727 0 1 0 18.727 18.728C58.716 44.933 50.337 36.556 40 36.543Z"/><path fill="#000" d="M42.93 67.503v-9.635a5.095 5.095 0 0 0 2.52-1.253l1.397-1.275h5.73a12.598 12.598 0 0 1-9.646 12.163Zm-4.002.298V57.023a.93.93 0 0 0-.93-.93 3.248 3.248 0 0 1-2.195-.85l-1.663-1.518a.93.93 0 0 0-.626-.243H27.55c.105-.728.273-1.446.504-2.144h5.46c.193 0 .381-.06.54-.173l2.618-1.867h6.656l2.619 1.867a.928.928 0 0 0 .54.173h5.46c.23.698.398 1.416.503 2.144h-5.964a.927.927 0 0 0-.626.243l-1.663 1.517c-.6.547-1.384.851-2.196.85a.93.93 0 0 0-.93.93V67.8c-.354.03-.71.048-1.072.048-.36 0-.717-.016-1.07-.047Zm-11.505-12.46h5.73l1.396 1.275a5.1 5.1 0 0 0 2.52 1.253v9.634a12.598 12.598 0 0 1-9.646-12.162ZM40 42.691a12.59 12.59 0 0 1 11.16 6.788h-4.376l-2.62-1.867a.93.93 0 0 0-.539-.175h-7.25a.924.924 0 0 0-.54.174l-2.619 1.868H28.84A12.592 12.592 0 0 1 40 42.69Zm13.456 7.354a14.432 14.432 0 0 0-26.912 0v.005a14.438 14.438 0 1 0 26.916 0l-.005-.005Z"/><path fill="#000" d="M43.797 52.697a.93.93 0 0 0-.93-.93h-5.736c-1.24 0-1.24 1.86 0 1.86h5.738a.929.929 0 0 0 .928-.93"/><g transform="translate(6 6)"><mask id="b" fill="#fff"><use xlink:href="#a"/></mask><path fill="#000" d="m66.235 27.73-1.214-.196a195.174 195.174 0 0 0-15.679-1.87l-2.09-9.904h18.983v11.97Zm-63.162-.196-1.214.198V15.76h18.889l-2.091 9.91a196.343 196.343 0 0 0-15.584 1.864Zm31.904-2.465v-1.76c0-1.24-1.86-1.24-1.86 0v1.76c-4.176.02-8.35.175-12.523.466h-.009l2.063-9.775H33.07v3.1c0 1.239 1.86 1.239 1.86 0v-3.1h10.422l2.06 9.768a196.048 196.048 0 0 0-12.435-.459ZM1.859 2.019l1.214.195c20.517 3.3 41.43 3.3 61.948 0l1.214-.196v11.883H1.859V2.018ZM67.768.22a.933.933 0 0 0-.751-.213l-2.29.368a193.171 193.171 0 0 1-61.36 0L1.077.01A.93.93 0 0 0 0 .928v27.89a.93.93 0 0 0 1.077.919l2.29-.368a191.931 191.931 0 0 1 16.051-1.89h.003c.023 0 .046 0 .07-.003 9.659-.726 19.358-.728 29.017-.007h.023c5.412.408 10.81 1.04 16.196 1.9l2.29.369a.93.93 0 0 0 1.077-.919V.929a.93.93 0 0 0-.326-.708Z" mask="url(#b)"/></g></g></svg>